<svg width="668" height="200" viewBox="0 0 668 200" fill="none" xmlns="http://www.w3.org/2000/svg">
<path d="M65 165H439" stroke="black"/>
<path d="M65 171V165" stroke="black"/>
<path d="M65 191.639C64.358 191.639 63.8111 191.465 63.3594 191.115C62.9077 190.763 62.5625 190.253 62.3239 189.585C62.0852 188.915 61.9659 188.105 61.9659 187.156C61.9659 186.213 62.0852 185.408 62.3239 184.74C62.5653 184.07 62.9119 183.558 63.3636 183.206C63.8182 182.851 64.3636 182.673 65 182.673C65.6364 182.673 66.1804 182.851 66.6321 183.206C67.0866 183.558 67.4332 184.07 67.6719 184.74C67.9134 185.408 68.0341 186.213 68.0341 187.156C68.0341 188.105 67.9148 188.915 67.6761 189.585C67.4375 190.253 67.0923 190.763 66.6406 191.115C66.1889 191.465 65.642 191.639 65 191.639ZM65 190.702C65.6364 190.702 66.1307 190.395 66.483 189.781C66.8352 189.168 67.0114 188.293 67.0114 187.156C67.0114 186.401 66.9304 185.757 66.7685 185.226C66.6094 184.695 66.3793 184.29 66.0781 184.011C65.7798 183.733 65.4205 183.594 65 183.594C64.3693 183.594 63.8764 183.905 63.5213 184.527C63.1662 185.146 62.9886 186.023 62.9886 187.156C62.9886 187.912 63.0682 188.554 63.2273 189.083C63.3864 189.611 63.6151 190.013 63.9134 190.288C64.2145 190.564 64.5767 190.702 65 190.702Z" fill="black"/>
<path d="M92.1818 171V165" stroke="black"/>
<path d="M87.2851 177.746L83.1136 183.703L82.3922 183.198L86.0341 177.997L85.9992 177.973L83.8685 177.92L84.3818 177.187L86.5637 177.241L87.2851 177.746ZM90.9521 180.192C91.1951 180.365 91.4068 180.583 91.5874 180.845C91.7679 181.107 91.885 181.415 91.9387 181.767C91.9937 182.118 91.9553 182.517 91.8236 182.966C91.6918 183.414 91.4345 183.911 91.0516 184.458C90.6809 184.988 90.3011 185.423 89.9124 185.763C89.527 186.103 89.1418 186.348 88.7568 186.497C88.3737 186.648 87.9975 186.703 87.628 186.661C87.2605 186.62 86.909 186.482 86.5735 186.247C86.2399 186.014 85.9884 185.739 85.8189 185.424C85.6528 185.108 85.5691 184.774 85.568 184.421C85.5702 184.067 85.658 183.716 85.8314 183.369L86.5412 183.866C86.4137 184.185 86.3826 184.5 86.4477 184.811C86.5161 185.122 86.7074 185.387 87.0216 185.607C87.4812 185.929 87.9844 185.982 88.5311 185.767C89.0798 185.553 89.6108 185.079 90.1241 184.346L90.0776 184.314C89.8549 184.401 89.6275 184.451 89.3954 184.465C89.1632 184.478 88.9336 184.454 88.7065 184.39C88.4794 184.326 88.263 184.222 88.0575 184.078C87.7162 183.839 87.462 183.536 87.2951 183.168C87.1314 182.799 87.0682 182.406 87.1053 181.99C87.1457 181.573 87.3003 181.173 87.5692 180.789C87.8245 180.424 88.1395 180.148 88.5142 179.959C88.8922 179.77 89.2927 179.689 89.7157 179.717C90.1407 179.745 90.5528 179.904 90.9521 180.192ZM90.504 180.832C90.2596 180.661 89.9967 180.568 89.7153 180.553C89.4372 180.537 89.169 180.592 88.9106 180.718C88.6556 180.843 88.4411 181.029 88.2673 181.278C88.0935 181.526 87.9896 181.79 87.9556 182.069C87.9249 182.348 87.9625 182.615 88.0684 182.868C88.1776 183.121 88.3543 183.333 88.5987 183.504C88.7829 183.633 88.9796 183.717 89.1889 183.757C89.3995 183.794 89.6081 183.791 89.8147 183.748C90.0245 183.704 90.2197 183.626 90.4003 183.512C90.5823 183.397 90.735 183.251 90.8586 183.075C91.0215 182.842 91.1181 182.584 91.1482 182.302C91.1802 182.021 91.1424 181.749 91.0348 181.486C90.9292 181.224 90.7522 181.006 90.504 180.832ZM91.8597 189.949C91.6181 189.774 91.4063 189.556 91.2244 189.296C91.0425 189.036 90.9248 188.729 90.8711 188.377C90.8188 188.022 90.8585 187.621 90.9902 187.172C91.1233 186.722 91.3827 186.222 91.7684 185.671C92.1377 185.144 92.5144 184.711 92.8985 184.373C93.2839 184.033 93.6684 183.789 94.0521 183.642C94.4371 183.492 94.8134 183.438 95.1809 183.478C95.5503 183.52 95.9028 183.659 96.2383 183.894C96.5719 184.127 96.8217 184.402 96.9879 184.718C97.1574 185.033 97.2417 185.366 97.2409 185.718C97.24 186.07 97.1559 186.418 96.9885 186.76L96.2787 186.263C96.4002 185.949 96.4277 185.637 96.3612 185.328C96.2947 185.018 96.1044 184.754 95.7902 184.534C95.3287 184.21 94.8245 184.157 94.2777 184.372C93.7329 184.589 93.2056 185.059 92.6958 185.783L92.7424 185.816C92.9664 185.727 93.1938 185.676 93.4246 185.665C93.6587 185.652 93.8893 185.678 94.1164 185.742C94.3435 185.805 94.5588 185.908 94.7625 186.051C95.1038 186.29 95.3563 186.594 95.5199 186.963C95.6849 187.33 95.7482 187.722 95.7097 188.14C95.6726 188.557 95.5196 188.957 95.2508 189.341C94.9928 189.709 94.6741 189.989 94.2947 190.18C93.9166 190.369 93.5152 190.449 93.0902 190.42C92.6686 190.391 92.2584 190.234 91.8597 189.949ZM92.3078 189.309C92.5522 189.48 92.8141 189.572 93.0935 189.586C93.375 189.601 93.6439 189.545 93.9003 189.418C94.1586 189.293 94.3761 189.104 94.5526 188.852C94.7251 188.606 94.8266 188.343 94.8573 188.064C94.8913 187.784 94.8544 187.517 94.7466 187.262C94.6407 187.009 94.4656 186.797 94.2213 186.626C94.037 186.497 93.8396 186.413 93.629 186.376C93.4197 186.336 93.2109 186.337 93.0024 186.379C92.7958 186.422 92.6015 186.502 92.4196 186.617C92.239 186.73 92.0863 186.876 91.9613 187.055C91.7957 187.291 91.6962 187.551 91.6628 187.834C91.6313 188.118 91.6684 188.392 91.7741 188.653C91.8817 188.917 92.0596 189.135 92.3078 189.309ZM96.9365 193.504C96.4982 193.197 96.2084 192.816 96.0671 192.362C95.9271 191.905 95.9353 191.392 96.0915 190.822C96.249 190.251 96.5546 189.641 97.0081 188.993C97.4589 188.349 97.9253 187.857 98.4074 187.515C98.8927 187.173 99.3737 186.989 99.8504 186.965C100.33 186.94 100.788 187.079 101.222 187.383C101.656 187.687 101.943 188.069 102.082 188.527C102.223 188.985 102.216 189.499 102.058 190.071C101.904 190.642 101.601 191.25 101.15 191.894C100.697 192.541 100.228 193.037 99.7451 193.381C99.2631 193.722 98.7837 193.905 98.307 193.93C97.8316 193.953 97.3748 193.811 96.9365 193.504ZM97.3846 192.864C97.819 193.168 98.3031 193.195 98.8369 192.944C99.3706 192.694 99.9091 192.181 100.452 191.405C100.813 190.889 101.066 190.411 101.209 189.971C101.354 189.532 101.391 189.146 101.318 188.812C101.248 188.479 101.069 188.213 100.782 188.012C100.352 187.71 99.8664 187.687 99.3266 187.942C98.7882 188.195 98.2481 188.708 97.7063 189.482C97.3451 189.998 97.0925 190.474 96.9485 190.911C96.8045 191.348 96.7685 191.731 96.8404 192.062C96.9143 192.394 97.0957 192.661 97.3846 192.864Z" fill="black"/>
<path d="M119.364 171V165" stroke="black"/>
<path d="M114.444 178.08L110.273 184.038L109.552 183.533L113.193 178.331L113.159 178.307L111.028 178.254L111.541 177.521L113.723 177.575L114.444 178.08ZM118.111 180.527C118.354 180.7 118.566 180.917 118.747 181.179C118.927 181.442 119.044 181.749 119.098 182.102C119.153 182.452 119.115 182.852 118.983 183.3C118.851 183.748 118.594 184.246 118.211 184.793C117.84 185.322 117.461 185.757 117.072 186.098C116.686 186.437 116.301 186.682 115.916 186.832C115.533 186.983 115.157 187.037 114.787 186.995C114.42 186.954 114.068 186.817 113.733 186.582C113.399 186.348 113.148 186.074 112.978 185.759C112.812 185.443 112.729 185.108 112.727 184.755C112.73 184.401 112.817 184.051 112.991 183.704L113.701 184.201C113.573 184.519 113.542 184.834 113.607 185.145C113.676 185.456 113.867 185.722 114.181 185.942C114.641 186.264 115.144 186.317 115.691 186.101C116.239 185.887 116.77 185.414 117.284 184.681L117.237 184.648C117.014 184.735 116.787 184.785 116.555 184.799C116.323 184.813 116.093 184.788 115.866 184.724C115.639 184.661 115.422 184.557 115.217 184.413C114.876 184.174 114.621 183.87 114.454 183.502C114.291 183.133 114.228 182.74 114.265 182.324C114.305 181.907 114.46 181.507 114.729 181.123C114.984 180.758 115.299 180.482 115.674 180.293C116.052 180.104 116.452 180.024 116.875 180.051C117.3 180.08 117.712 180.238 118.111 180.527ZM117.663 181.167C117.419 180.995 117.156 180.902 116.875 180.887C116.597 180.872 116.328 180.927 116.07 181.052C115.815 181.177 115.601 181.364 115.427 181.612C115.253 181.86 115.149 182.124 115.115 182.404C115.084 182.683 115.122 182.949 115.228 183.202C115.337 183.455 115.514 183.667 115.758 183.838C115.942 183.967 116.139 184.051 116.348 184.091C116.559 184.129 116.768 184.126 116.974 184.083C117.184 184.039 117.379 183.96 117.56 183.847C117.742 183.731 117.894 183.585 118.018 183.409C118.181 183.176 118.277 182.919 118.308 182.636C118.34 182.355 118.302 182.083 118.194 181.82C118.089 181.558 117.912 181.34 117.663 181.167ZM119.019 190.283C118.777 190.108 118.566 189.891 118.384 189.63C118.202 189.37 118.084 189.064 118.03 188.711C117.978 188.356 118.018 187.955 118.15 187.507C118.283 187.057 118.542 186.556 118.928 186.006C119.297 185.478 119.674 185.045 120.058 184.707C120.443 184.367 120.828 184.124 121.211 183.976C121.596 183.827 121.973 183.772 122.34 183.813C122.71 183.855 123.062 183.993 123.398 184.228C123.731 184.462 123.981 184.736 124.147 185.052C124.317 185.367 124.401 185.701 124.4 186.053C124.399 186.405 124.315 186.752 124.148 187.094L123.438 186.597C123.56 186.284 123.587 185.972 123.521 185.662C123.454 185.353 123.264 185.088 122.95 184.868C122.488 184.545 121.984 184.491 121.437 184.706C120.892 184.923 120.365 185.393 119.855 186.117L119.902 186.15C120.126 186.061 120.353 186.011 120.584 185.999C120.818 185.987 121.049 186.012 121.276 186.076C121.503 186.14 121.718 186.243 121.922 186.385C122.263 186.624 122.516 186.928 122.679 187.297C122.844 187.664 122.908 188.057 122.869 188.475C122.832 188.891 122.679 189.291 122.41 189.675C122.152 190.044 121.833 190.323 121.454 190.514C121.076 190.703 120.675 190.783 120.25 190.755C119.828 190.725 119.418 190.568 119.019 190.283ZM119.467 189.643C119.712 189.814 119.973 189.907 120.253 189.92C120.534 189.935 120.803 189.879 121.06 189.753C121.318 189.627 121.535 189.438 121.712 189.186C121.884 188.94 121.986 188.677 122.017 188.398C122.051 188.119 122.014 187.851 121.906 187.597C121.8 187.343 121.625 187.131 121.381 186.96C121.196 186.831 120.999 186.748 120.788 186.71C120.579 186.671 120.37 186.672 120.162 186.714C119.955 186.757 119.761 186.836 119.579 186.951C119.398 187.065 119.246 187.211 119.121 187.389C118.955 187.626 118.856 187.886 118.822 188.168C118.791 188.453 118.828 188.726 118.933 188.988C119.041 189.251 119.219 189.469 119.467 189.643ZM124.014 193.781C123.673 193.542 123.413 193.259 123.235 192.932C123.057 192.604 122.968 192.265 122.969 191.913C122.969 191.561 123.068 191.228 123.264 190.915L123.962 191.404C123.801 191.692 123.767 192.001 123.86 192.329C123.957 192.657 124.158 192.928 124.463 193.141C124.707 193.312 124.964 193.407 125.234 193.426C125.506 193.446 125.767 193.394 126.015 193.27C126.267 193.146 126.482 192.957 126.66 192.703C126.842 192.443 126.947 192.171 126.975 191.887C127.006 191.603 126.965 191.332 126.85 191.076C126.735 190.819 126.551 190.6 126.298 190.421C126.117 190.291 125.91 190.188 125.678 190.112C125.446 190.034 125.237 189.996 125.051 189.998L124.433 189.444L126.847 186.764L129.942 188.932L129.494 189.572L127.004 187.828L125.564 189.438L125.599 189.463C125.789 189.451 125.998 189.478 126.227 189.543C126.457 189.608 126.671 189.711 126.871 189.85C127.235 190.106 127.499 190.42 127.662 190.795C127.828 191.168 127.887 191.562 127.84 191.977C127.794 192.393 127.636 192.794 127.366 193.18C127.1 193.56 126.777 193.84 126.397 194.019C126.021 194.197 125.624 194.269 125.206 194.234C124.79 194.197 124.393 194.046 124.014 193.781Z" fill="black"/>
<path d="M146.545 171V165" stroke="black"/>
<path d="M142.418 178.285L138.247 184.242L137.525 183.737L141.167 178.536L141.132 178.511L139.002 178.459L139.515 177.726L141.697 177.78L142.418 178.285ZM146.085 180.731C146.328 180.904 146.54 181.122 146.721 181.384C146.901 181.646 147.018 181.954 147.072 182.306C147.127 182.657 147.089 183.056 146.957 183.505C146.825 183.953 146.568 184.45 146.185 184.997C145.814 185.527 145.434 185.962 145.046 186.302C144.66 186.642 144.275 186.887 143.89 187.036C143.507 187.187 143.131 187.241 142.761 187.199C142.394 187.159 142.042 187.021 141.707 186.786C141.373 186.553 141.122 186.278 140.952 185.963C140.786 185.647 140.702 185.313 140.701 184.959C140.703 184.605 140.791 184.255 140.965 183.908L141.674 184.405C141.547 184.724 141.516 185.038 141.581 185.35C141.649 185.661 141.841 185.926 142.155 186.146C142.614 186.468 143.118 186.521 143.664 186.306C144.213 186.092 144.744 185.618 145.257 184.885L145.211 184.853C144.988 184.94 144.761 184.99 144.529 185.004C144.296 185.017 144.067 184.992 143.84 184.929C143.613 184.865 143.396 184.761 143.191 184.617C142.849 184.378 142.595 184.075 142.428 183.706C142.265 183.337 142.201 182.945 142.238 182.529C142.279 182.112 142.434 181.712 142.702 181.328C142.958 180.963 143.273 180.686 143.647 180.498C144.025 180.309 144.426 180.228 144.849 180.256C145.274 180.284 145.686 180.443 146.085 180.731ZM145.637 181.371C145.393 181.2 145.13 181.107 144.849 181.092C144.57 181.076 144.302 181.131 144.044 181.257C143.789 181.382 143.574 181.568 143.401 181.816C143.227 182.065 143.123 182.329 143.089 182.608C143.058 182.887 143.096 183.154 143.202 183.407C143.311 183.66 143.487 183.871 143.732 184.043C143.916 184.172 144.113 184.256 144.322 184.295C144.533 184.333 144.741 184.33 144.948 184.287C145.158 184.243 145.353 184.165 145.534 184.051C145.715 183.936 145.868 183.79 145.992 183.613C146.155 183.381 146.251 183.123 146.281 182.841C146.313 182.56 146.276 182.288 146.168 182.024C146.062 181.763 145.885 181.545 145.637 181.371ZM145.098 189.04L151.453 185.634L151.486 185.588L148.414 183.437L148.862 182.797L152.679 185.469L152.206 186.144L145.854 189.569L145.098 189.04ZM151.35 193.538C150.911 193.231 150.622 192.851 150.48 192.396C150.34 191.94 150.348 191.427 150.505 190.857C150.662 190.285 150.968 189.676 151.421 189.028C151.872 188.384 152.339 187.891 152.821 187.55C153.306 187.207 153.787 187.024 154.264 186.999C154.744 186.974 155.201 187.114 155.635 187.418C156.07 187.722 156.356 188.103 156.495 188.562C156.637 189.019 156.629 189.534 156.471 190.106C156.317 190.677 156.014 191.285 155.564 191.928C155.11 192.576 154.642 193.072 154.158 193.415C153.676 193.757 153.197 193.94 152.72 193.965C152.245 193.987 151.788 193.845 151.35 193.538ZM151.798 192.898C152.232 193.203 152.716 193.229 153.25 192.979C153.784 192.728 154.322 192.215 154.866 191.44C155.227 190.924 155.479 190.446 155.622 190.006C155.768 189.567 155.804 189.181 155.732 188.847C155.661 188.514 155.482 188.247 155.195 188.046C154.765 187.745 154.28 187.722 153.74 187.977C153.201 188.23 152.661 188.743 152.119 189.517C151.758 190.033 151.506 190.509 151.362 190.946C151.218 191.382 151.182 191.766 151.254 192.097C151.327 192.429 151.509 192.696 151.798 192.898Z" fill="black"/>
<path d="M173.727 171V165" stroke="black"/>
<path d="M169.644 178.316L165.473 184.273L164.751 183.768L168.393 178.567L168.358 178.542L166.227 178.49L166.741 177.757L168.923 177.81L169.644 178.316ZM173.311 180.762C173.554 180.935 173.766 181.153 173.946 181.415C174.127 181.677 174.244 181.984 174.298 182.337C174.353 182.688 174.314 183.087 174.183 183.535C174.051 183.983 173.794 184.481 173.411 185.028C173.04 185.557 172.66 185.992 172.271 186.333C171.886 186.673 171.501 186.917 171.116 187.067C170.733 187.218 170.356 187.272 169.987 187.23C169.619 187.19 169.268 187.052 168.932 186.817C168.599 186.583 168.347 186.309 168.178 185.994C168.012 185.678 167.928 185.344 167.927 184.99C167.929 184.636 168.017 184.286 168.19 183.939L168.9 184.436C168.773 184.754 168.742 185.069 168.807 185.381C168.875 185.692 169.066 185.957 169.381 186.177C169.84 186.499 170.343 186.552 170.89 186.337C171.439 186.123 171.97 185.649 172.483 184.916L172.437 184.883C172.214 184.97 171.987 185.021 171.754 185.034C171.522 185.048 171.293 185.023 171.065 184.959C170.838 184.896 170.622 184.792 170.416 184.648C170.075 184.409 169.821 184.105 169.654 183.737C169.49 183.368 169.427 182.976 169.464 182.559C169.505 182.143 169.659 181.742 169.928 181.358C170.183 180.994 170.498 180.717 170.873 180.529C171.251 180.34 171.652 180.259 172.075 180.286C172.5 180.315 172.912 180.474 173.311 180.762ZM172.863 181.402C172.619 181.231 172.356 181.138 172.074 181.123C171.796 181.107 171.528 181.162 171.27 181.288C171.015 181.412 170.8 181.599 170.626 181.847C170.453 182.095 170.349 182.359 170.315 182.639C170.284 182.918 170.322 183.184 170.427 183.438C170.537 183.69 170.713 183.902 170.958 184.073C171.142 184.202 171.339 184.287 171.548 184.326C171.759 184.364 171.967 184.361 172.174 184.318C172.384 184.274 172.579 184.195 172.759 184.082C172.941 183.967 173.094 183.821 173.218 183.644C173.381 183.412 173.477 183.154 173.507 182.872C173.539 182.591 173.501 182.318 173.394 182.055C173.288 181.793 173.111 181.576 172.863 181.402ZM172.324 189.07L178.679 185.665L178.712 185.619L175.64 183.468L176.088 182.828L179.905 185.5L179.432 186.175L173.08 189.6L172.324 189.07ZM178.542 193.546C178.201 193.307 177.941 193.024 177.763 192.696C177.584 192.369 177.495 192.03 177.496 191.678C177.497 191.326 177.596 190.993 177.792 190.679L178.49 191.168C178.328 191.457 178.294 191.765 178.388 192.094C178.485 192.422 178.686 192.693 178.99 192.906C179.235 193.077 179.492 193.172 179.762 193.19C180.034 193.21 180.294 193.159 180.543 193.035C180.795 192.911 181.009 192.721 181.187 192.467C181.369 192.208 181.474 191.936 181.502 191.652C181.534 191.368 181.492 191.097 181.377 190.84C181.262 190.583 181.078 190.365 180.826 190.185C180.645 190.056 180.438 189.953 180.205 189.877C179.974 189.798 179.765 189.76 179.578 189.763L178.96 189.209L181.374 186.529L184.469 188.696L184.021 189.336L181.531 187.593L180.092 189.203L180.126 189.228C180.317 189.216 180.526 189.243 180.755 189.308C180.984 189.373 181.199 189.475 181.398 189.615C181.763 189.871 182.027 190.185 182.189 190.559C182.356 190.933 182.415 191.327 182.367 191.742C182.322 192.158 182.164 192.559 181.894 192.945C181.627 193.325 181.304 193.604 180.925 193.783C180.548 193.962 180.151 194.034 179.734 193.999C179.317 193.961 178.92 193.811 178.542 193.546Z" fill="black"/>
<path d="M200.909 171V165" stroke="black"/>
<path d="M196.044 177.768L191.873 183.726L191.151 183.221L194.793 178.019L194.758 177.995L192.628 177.942L193.141 177.209L195.323 177.263L196.044 177.768ZM199.711 180.215C199.954 180.388 200.166 180.605 200.347 180.867C200.527 181.13 200.644 181.437 200.698 181.79C200.753 182.14 200.715 182.54 200.583 182.988C200.451 183.436 200.194 183.934 199.811 184.481C199.44 185.01 199.06 185.445 198.672 185.786C198.286 186.125 197.901 186.37 197.516 186.52C197.133 186.671 196.757 186.725 196.387 186.683C196.02 186.642 195.668 186.505 195.333 186.27C194.999 186.036 194.748 185.762 194.578 185.447C194.412 185.131 194.328 184.796 194.327 184.443C194.329 184.089 194.417 183.739 194.591 183.392L195.3 183.889C195.173 184.207 195.142 184.522 195.207 184.833C195.275 185.144 195.467 185.41 195.781 185.63C196.24 185.952 196.744 186.005 197.29 185.789C197.839 185.575 198.37 185.102 198.883 184.369L198.837 184.336C198.614 184.423 198.387 184.473 198.155 184.487C197.922 184.501 197.693 184.476 197.466 184.412C197.239 184.349 197.022 184.245 196.817 184.101C196.475 183.862 196.221 183.558 196.054 183.19C195.891 182.821 195.827 182.428 195.865 182.012C195.905 181.595 196.06 181.195 196.328 180.811C196.584 180.446 196.899 180.17 197.273 179.982C197.651 179.792 198.052 179.712 198.475 179.739C198.9 179.768 199.312 179.926 199.711 180.215ZM199.263 180.855C199.019 180.683 198.756 180.59 198.475 180.575C198.196 180.56 197.928 180.615 197.67 180.74C197.415 180.865 197.2 181.052 197.027 181.3C196.853 181.548 196.749 181.812 196.715 182.092C196.684 182.371 196.722 182.637 196.828 182.89C196.937 183.143 197.114 183.355 197.358 183.526C197.542 183.655 197.739 183.739 197.948 183.779C198.159 183.817 198.367 183.814 198.574 183.771C198.784 183.727 198.979 183.648 199.16 183.535C199.342 183.419 199.494 183.273 199.618 183.097C199.781 182.864 199.877 182.607 199.907 182.324C199.939 182.043 199.902 181.771 199.794 181.508C199.688 181.246 199.511 181.028 199.263 180.855ZM200.549 189.922C200.15 189.643 199.846 189.325 199.639 188.969C199.435 188.612 199.335 188.249 199.34 187.879C199.346 187.507 199.462 187.161 199.69 186.841C199.864 186.587 200.077 186.389 200.327 186.247C200.578 186.102 200.842 186.019 201.117 185.998C201.395 185.976 201.656 186.021 201.901 186.135L201.925 186.1C201.692 185.827 201.577 185.508 201.581 185.143C201.586 184.777 201.7 184.436 201.923 184.122C202.133 183.818 202.399 183.601 202.721 183.471C203.043 183.341 203.388 183.302 203.756 183.355C204.126 183.408 204.486 183.558 204.835 183.802C205.18 184.044 205.44 184.328 205.615 184.656C205.79 184.984 205.872 185.322 205.86 185.669C205.85 186.017 205.74 186.343 205.53 186.647C205.307 186.962 205.023 187.184 204.679 187.312C204.337 187.441 204.001 187.444 203.67 187.322L203.646 187.357C203.834 187.546 203.964 187.774 204.034 188.041C204.106 188.305 204.119 188.581 204.071 188.868C204.024 189.153 203.913 189.423 203.739 189.676C203.511 189.997 203.223 190.223 202.874 190.354C202.528 190.484 202.153 190.515 201.748 190.445C201.346 190.375 200.947 190.201 200.549 189.922ZM200.997 189.282C201.267 189.471 201.53 189.59 201.787 189.64C202.044 189.69 202.282 189.673 202.5 189.589C202.718 189.504 202.902 189.356 203.053 189.144C203.209 188.918 203.29 188.678 203.297 188.426C203.303 188.173 203.242 187.928 203.113 187.69C202.987 187.454 202.797 187.248 202.545 187.072C202.291 186.894 202.03 186.784 201.761 186.743C201.494 186.704 201.242 186.73 201.007 186.823C200.774 186.916 200.579 187.077 200.424 187.303C200.273 187.515 200.194 187.737 200.187 187.969C200.182 188.203 200.248 188.433 200.385 188.659C200.522 188.884 200.726 189.092 200.997 189.282ZM202.977 186.455C203.19 186.604 203.409 186.694 203.634 186.724C203.86 186.756 204.075 186.728 204.277 186.641C204.479 186.555 204.654 186.409 204.799 186.205C204.939 186.002 205.014 185.793 205.026 185.579C205.038 185.362 204.991 185.156 204.883 184.959C204.777 184.76 204.614 184.584 204.395 184.43C204.172 184.274 203.948 184.179 203.722 184.146C203.499 184.111 203.288 184.137 203.091 184.224C202.895 184.31 202.728 184.454 202.589 184.657C202.443 184.861 202.363 185.072 202.349 185.291C202.336 185.511 202.384 185.722 202.491 185.924C202.598 186.126 202.76 186.303 202.977 186.455ZM205.632 193.481C205.193 193.174 204.904 192.794 204.762 192.339C204.622 191.883 204.631 191.37 204.787 190.8C204.944 190.228 205.25 189.619 205.703 188.971C206.154 188.327 206.621 187.834 207.103 187.493C207.588 187.15 208.069 186.967 208.546 186.942C209.026 186.917 209.483 187.057 209.917 187.361C210.352 187.665 210.638 188.046 210.777 188.505C210.919 188.962 210.911 189.477 210.753 190.049C210.599 190.62 210.296 191.227 209.846 191.871C209.392 192.519 208.924 193.015 208.44 193.358C207.958 193.7 207.479 193.883 207.002 193.908C206.527 193.93 206.07 193.788 205.632 193.481ZM206.08 192.841C206.514 193.145 206.998 193.172 207.532 192.922C208.066 192.671 208.604 192.158 209.148 191.382C209.509 190.867 209.761 190.389 209.904 189.949C210.05 189.51 210.086 189.124 210.014 188.79C209.943 188.457 209.764 188.19 209.477 187.989C209.047 187.688 208.562 187.664 208.022 187.919C207.483 188.172 206.943 188.686 206.402 189.46C206.04 189.976 205.788 190.452 205.644 190.889C205.5 191.325 205.464 191.709 205.536 192.04C205.61 192.372 205.791 192.639 206.08 192.841Z" fill="black"/>
<path d="M228.091 171V165" stroke="black"/>
<path d="M223.294 177.816L219.123 183.773L218.401 183.268L222.043 178.067L222.008 178.043L219.878 177.99L220.391 177.257L222.573 177.311L223.294 177.816ZM226.961 180.262C227.204 180.435 227.416 180.653 227.596 180.915C227.777 181.177 227.894 181.485 227.948 181.837C228.003 182.188 227.964 182.587 227.833 183.036C227.701 183.484 227.444 183.981 227.061 184.528C226.69 185.058 226.31 185.493 225.921 185.833C225.536 186.173 225.151 186.418 224.766 186.567C224.383 186.718 224.007 186.773 223.637 186.731C223.27 186.69 222.918 186.552 222.583 186.317C222.249 186.084 221.997 185.809 221.828 185.494C221.662 185.178 221.578 184.844 221.577 184.491C221.579 184.137 221.667 183.786 221.841 183.439L222.55 183.936C222.423 184.255 222.392 184.57 222.457 184.881C222.525 185.192 222.716 185.457 223.031 185.677C223.49 185.999 223.993 186.052 224.54 185.837C225.089 185.623 225.62 185.149 226.133 184.416L226.087 184.384C225.864 184.471 225.637 184.521 225.404 184.535C225.172 184.548 224.943 184.524 224.716 184.46C224.488 184.396 224.272 184.292 224.067 184.148C223.725 183.909 223.471 183.606 223.304 183.238C223.141 182.869 223.077 182.476 223.114 182.06C223.155 181.643 223.309 181.243 223.578 180.859C223.834 180.494 224.149 180.218 224.523 180.029C224.901 179.84 225.302 179.759 225.725 179.787C226.15 179.815 226.562 179.974 226.961 180.262ZM226.513 180.902C226.269 180.731 226.006 180.638 225.724 180.623C225.446 180.607 225.178 180.662 224.92 180.788C224.665 180.913 224.45 181.099 224.276 181.348C224.103 181.596 223.999 181.86 223.965 182.139C223.934 182.418 223.972 182.685 224.077 182.938C224.187 183.191 224.363 183.403 224.608 183.574C224.792 183.703 224.989 183.787 225.198 183.827C225.409 183.864 225.617 183.861 225.824 183.818C226.034 183.774 226.229 183.696 226.409 183.582C226.591 183.467 226.744 183.321 226.868 183.145C227.031 182.912 227.127 182.654 227.157 182.372C227.189 182.091 227.151 181.819 227.044 181.556C226.938 181.294 226.761 181.076 226.513 180.902ZM227.799 189.97C227.399 189.69 227.096 189.372 226.889 189.016C226.685 188.659 226.585 188.296 226.59 187.927C226.595 187.555 226.712 187.209 226.939 186.888C227.114 186.635 227.326 186.437 227.577 186.294C227.828 186.149 228.091 186.067 228.367 186.045C228.645 186.023 228.906 186.069 229.151 186.182L229.175 186.147C228.941 185.874 228.827 185.555 228.83 185.191C228.835 184.824 228.95 184.484 229.173 184.169C229.383 183.865 229.649 183.648 229.971 183.519C230.293 183.389 230.638 183.35 231.006 183.402C231.376 183.456 231.735 183.605 232.084 183.85C232.43 184.091 232.69 184.376 232.865 184.704C233.04 185.032 233.122 185.369 233.11 185.716C233.1 186.065 232.99 186.391 232.78 186.695C232.557 187.01 232.273 187.231 231.928 187.36C231.587 187.488 231.251 187.491 230.92 187.37L230.896 187.404C231.084 187.594 231.213 187.822 231.284 188.088C231.356 188.353 231.368 188.628 231.32 188.916C231.274 189.201 231.163 189.47 230.989 189.724C230.761 190.044 230.473 190.27 230.124 190.401C229.778 190.532 229.403 190.563 228.998 190.493C228.596 190.423 228.197 190.248 227.799 189.97ZM228.247 189.33C228.517 189.519 228.78 189.638 229.037 189.688C229.294 189.738 229.531 189.721 229.749 189.636C229.967 189.552 230.152 189.404 230.303 189.192C230.459 188.965 230.54 188.726 230.546 188.473C230.553 188.221 230.492 187.975 230.363 187.738C230.237 187.502 230.047 187.296 229.795 187.119C229.541 186.941 229.28 186.832 229.011 186.791C228.743 186.751 228.492 186.778 228.257 186.87C228.024 186.964 227.829 187.124 227.674 187.35C227.522 187.562 227.443 187.785 227.437 188.017C227.432 188.251 227.498 188.48 227.635 188.706C227.771 188.932 227.976 189.14 228.247 189.33ZM230.227 186.503C230.44 186.652 230.659 186.742 230.884 186.772C231.11 186.803 231.325 186.776 231.527 186.689C231.729 186.602 231.903 186.457 232.049 186.253C232.189 186.05 232.264 185.841 232.275 185.626C232.288 185.41 232.241 185.203 232.133 185.006C232.026 184.807 231.864 184.631 231.645 184.478C231.422 184.322 231.197 184.227 230.972 184.194C230.748 184.158 230.538 184.184 230.341 184.272C230.145 184.357 229.978 184.502 229.838 184.705C229.693 184.909 229.613 185.12 229.598 185.338C229.586 185.558 229.634 185.769 229.741 185.971C229.848 186.173 230.01 186.35 230.227 186.503ZM232.8 193.472C232.459 193.233 232.199 192.95 232.021 192.623C231.842 192.295 231.753 191.956 231.754 191.604C231.755 191.252 231.854 190.919 232.05 190.606L232.748 191.094C232.586 191.383 232.553 191.692 232.646 192.02C232.743 192.348 232.944 192.619 233.248 192.832C233.493 193.003 233.75 193.098 234.02 193.116C234.292 193.136 234.552 193.085 234.801 192.961C235.053 192.837 235.267 192.647 235.445 192.393C235.627 192.134 235.732 191.862 235.76 191.578C235.792 191.294 235.75 191.023 235.635 190.766C235.52 190.51 235.336 190.291 235.084 190.111C234.903 189.982 234.696 189.879 234.463 189.803C234.232 189.724 234.023 189.687 233.836 189.689L233.218 189.135L235.632 186.455L238.727 188.622L238.279 189.262L235.789 187.519L234.35 189.129L234.384 189.154C234.575 189.142 234.784 189.169 235.013 189.234C235.242 189.299 235.457 189.401 235.656 189.541C236.021 189.797 236.285 190.111 236.448 190.485C236.614 190.859 236.673 191.253 236.625 191.668C236.58 192.084 236.422 192.485 236.152 192.871C235.885 193.251 235.562 193.53 235.183 193.71C234.806 193.888 234.409 193.96 233.992 193.925C233.575 193.888 233.178 193.737 232.8 193.472Z" fill="black"/>
<path d="M255.273 171V165" stroke="black"/>
<path d="M249.876 177.746L245.705 183.703L244.983 183.198L248.625 177.997L248.59 177.973L246.459 177.92L246.973 177.187L249.155 177.241L249.876 177.746ZM253.543 180.192C253.786 180.365 253.998 180.583 254.178 180.845C254.359 181.107 254.476 181.415 254.53 181.767C254.585 182.118 254.546 182.517 254.414 182.966C254.283 183.414 254.025 183.911 253.642 184.458C253.272 184.988 252.892 185.423 252.503 185.763C252.118 186.103 251.733 186.348 251.348 186.497C250.965 186.648 250.588 186.703 250.219 186.661C249.851 186.62 249.5 186.482 249.164 186.247C248.831 186.014 248.579 185.739 248.41 185.424C248.244 185.108 248.16 184.774 248.159 184.421C248.161 184.067 248.249 183.716 248.422 183.369L249.132 183.866C249.005 184.185 248.973 184.5 249.039 184.811C249.107 185.122 249.298 185.387 249.612 185.607C250.072 185.929 250.575 185.982 251.122 185.767C251.671 185.553 252.202 185.079 252.715 184.346L252.668 184.314C252.446 184.401 252.218 184.451 251.986 184.465C251.754 184.478 251.524 184.453 251.297 184.39C251.07 184.326 250.854 184.222 250.648 184.078C250.307 183.839 250.053 183.536 249.886 183.167C249.722 182.799 249.659 182.406 249.696 181.99C249.737 181.573 249.891 181.173 250.16 180.789C250.415 180.424 250.73 180.148 251.105 179.959C251.483 179.77 251.884 179.689 252.307 179.717C252.732 179.745 253.144 179.904 253.543 180.192ZM253.095 180.832C252.851 180.661 252.588 180.568 252.306 180.553C252.028 180.537 251.76 180.592 251.502 180.718C251.246 180.843 251.032 181.029 250.858 181.278C250.684 181.526 250.581 181.79 250.547 182.069C250.516 182.348 250.553 182.615 250.659 182.868C250.768 183.121 250.945 183.333 251.19 183.504C251.374 183.633 251.571 183.717 251.78 183.757C251.99 183.794 252.199 183.791 252.406 183.748C252.615 183.704 252.811 183.626 252.991 183.512C253.173 183.397 253.326 183.251 253.449 183.075C253.612 182.842 253.709 182.584 253.739 182.302C253.771 182.021 253.733 181.749 253.626 181.486C253.52 181.224 253.343 181.006 253.095 180.832ZM258.655 183.771C258.898 183.944 259.109 184.162 259.29 184.424C259.47 184.687 259.588 184.994 259.641 185.347C259.696 185.697 259.658 186.097 259.526 186.545C259.394 186.993 259.137 187.491 258.754 188.037C258.383 188.567 258.004 189.002 257.615 189.342C257.23 189.682 256.844 189.927 256.459 190.077C256.076 190.227 255.7 190.282 255.331 190.24C254.963 190.199 254.612 190.062 254.276 189.827C253.943 189.593 253.691 189.319 253.522 189.003C253.355 188.688 253.272 188.353 253.271 188C253.273 187.646 253.361 187.295 253.534 186.949L254.244 187.446C254.116 187.764 254.085 188.079 254.15 188.39C254.219 188.701 254.41 188.967 254.724 189.187C255.184 189.508 255.687 189.562 256.234 189.346C256.782 189.132 257.313 188.659 257.827 187.926L257.78 187.893C257.558 187.98 257.33 188.03 257.098 188.044C256.866 188.058 256.636 188.033 256.409 187.969C256.182 187.905 255.966 187.802 255.76 187.658C255.419 187.419 255.165 187.115 254.998 186.747C254.834 186.378 254.771 185.985 254.808 185.569C254.848 185.152 255.003 184.752 255.272 184.368C255.527 184.003 255.842 183.727 256.217 183.538C256.595 183.349 256.995 183.268 257.418 183.296C257.843 183.325 258.255 183.483 258.655 183.771ZM258.207 184.411C257.962 184.24 257.699 184.147 257.418 184.132C257.14 184.117 256.872 184.172 256.613 184.297C256.358 184.422 256.144 184.609 255.97 184.857C255.796 185.105 255.692 185.369 255.658 185.649C255.628 185.928 255.665 186.194 255.771 186.447C255.88 186.7 256.057 186.912 256.301 187.083C256.485 187.212 256.682 187.296 256.891 187.336C257.102 187.373 257.311 187.371 257.517 187.327C257.727 187.284 257.922 187.205 258.103 187.092C258.285 186.976 258.438 186.83 258.561 186.654C258.724 186.421 258.821 186.164 258.851 185.881C258.883 185.6 258.845 185.328 258.737 185.065C258.632 184.803 258.455 184.585 258.207 184.411ZM259.527 193.504C259.089 193.197 258.799 192.816 258.658 192.362C258.518 191.905 258.526 191.392 258.682 190.822C258.84 190.251 259.145 189.641 259.599 188.993C260.05 188.349 260.516 187.857 260.998 187.515C261.484 187.173 261.965 186.989 262.441 186.965C262.921 186.94 263.379 187.079 263.813 187.383C264.247 187.687 264.534 188.069 264.672 188.527C264.814 188.985 264.807 189.499 264.649 190.071C264.495 190.642 264.192 191.25 263.741 191.894C263.288 192.541 262.819 193.037 262.336 193.381C261.854 193.722 261.375 193.905 260.898 193.93C260.422 193.953 259.966 193.811 259.527 193.504ZM259.976 192.864C260.41 193.168 260.894 193.195 261.428 192.944C261.962 192.694 262.5 192.181 263.043 191.405C263.404 190.889 263.657 190.411 263.8 189.971C263.945 189.532 263.982 189.146 263.909 188.812C263.839 188.479 263.66 188.213 263.373 188.012C262.942 187.71 262.457 187.687 261.917 187.942C261.379 188.195 260.839 188.708 260.297 189.482C259.936 189.998 259.683 190.474 259.539 190.911C259.395 191.348 259.359 191.731 259.431 192.062C259.505 192.394 259.687 192.661 259.976 192.864Z" fill="black"/>
<path d="M282.455 171V165" stroke="black"/>
<path d="M277.626 177.794L273.454 183.751L272.733 183.246L276.375 178.045L276.34 178.02L274.209 177.968L274.722 177.235L276.904 177.288L277.626 177.794ZM281.293 180.24C281.536 180.413 281.748 180.63 281.928 180.893C282.109 181.155 282.226 181.462 282.279 181.815C282.334 182.166 282.296 182.565 282.164 183.013C282.033 183.461 281.775 183.959 281.392 184.506C281.022 185.035 280.642 185.47 280.253 185.811C279.868 186.151 279.482 186.395 279.097 186.545C278.714 186.696 278.338 186.75 277.969 186.708C277.601 186.668 277.25 186.53 276.914 186.295C276.581 186.061 276.329 185.787 276.16 185.472C275.993 185.156 275.91 184.822 275.909 184.468C275.911 184.114 275.999 183.764 276.172 183.417L276.882 183.914C276.754 184.232 276.723 184.547 276.788 184.859C276.857 185.17 277.048 185.435 277.362 185.655C277.822 185.977 278.325 186.03 278.872 185.815C279.421 185.601 279.952 185.127 280.465 184.394L280.418 184.361C280.196 184.448 279.968 184.499 279.736 184.512C279.504 184.526 279.274 184.501 279.047 184.437C278.82 184.374 278.604 184.27 278.398 184.126C278.057 183.887 277.803 183.583 277.636 183.215C277.472 182.846 277.409 182.454 277.446 182.037C277.486 181.621 277.641 181.22 277.91 180.836C278.165 180.472 278.48 180.195 278.855 180.007C279.233 179.818 279.633 179.737 280.056 179.764C280.481 179.793 280.893 179.952 281.293 180.24ZM280.845 180.88C280.6 180.709 280.337 180.616 280.056 180.601C279.778 180.585 279.51 180.64 279.251 180.766C278.996 180.89 278.782 181.077 278.608 181.325C278.434 181.573 278.33 181.837 278.296 182.117C278.266 182.396 278.303 182.662 278.409 182.916C278.518 183.168 278.695 183.38 278.939 183.551C279.124 183.68 279.32 183.765 279.53 183.804C279.74 183.842 279.949 183.839 280.155 183.796C280.365 183.752 280.56 183.673 280.741 183.56C280.923 183.445 281.076 183.299 281.199 183.122C281.362 182.89 281.459 182.632 281.489 182.35C281.521 182.069 281.483 181.796 281.376 181.533C281.27 181.271 281.093 181.054 280.845 180.88ZM286.404 183.819C286.647 183.992 286.859 184.21 287.04 184.472C287.22 184.734 287.337 185.042 287.391 185.394C287.446 185.745 287.408 186.144 287.276 186.593C287.144 187.041 286.887 187.538 286.504 188.085C286.133 188.615 285.754 189.05 285.365 189.39C284.979 189.73 284.594 189.975 284.209 190.124C283.826 190.275 283.45 190.329 283.08 190.287C282.713 190.247 282.361 190.109 282.026 189.874C281.692 189.641 281.441 189.366 281.271 189.051C281.105 188.735 281.022 188.401 281.02 188.047C281.023 187.693 281.11 187.343 281.284 186.996L281.994 187.493C281.866 187.812 281.835 188.126 281.9 188.438C281.969 188.749 282.16 189.014 282.474 189.234C282.934 189.556 283.437 189.609 283.984 189.394C284.532 189.18 285.063 188.706 285.577 187.973L285.53 187.941C285.307 188.028 285.08 188.078 284.848 188.092C284.616 188.105 284.386 188.08 284.159 188.017C283.932 187.953 283.715 187.849 283.51 187.705C283.169 187.466 282.914 187.163 282.747 186.794C282.584 186.425 282.521 186.033 282.558 185.617C282.598 185.2 282.753 184.8 283.022 184.416C283.277 184.051 283.592 183.774 283.967 183.586C284.345 183.397 284.745 183.316 285.168 183.344C285.593 183.372 286.005 183.531 286.404 183.819ZM285.956 184.459C285.712 184.288 285.449 184.195 285.168 184.18C284.89 184.164 284.621 184.219 284.363 184.345C284.108 184.47 283.894 184.656 283.72 184.904C283.546 185.153 283.442 185.417 283.408 185.696C283.377 185.975 283.415 186.242 283.521 186.495C283.63 186.748 283.807 186.959 284.051 187.131C284.235 187.26 284.432 187.344 284.641 187.383C284.852 187.421 285.061 187.418 285.267 187.375C285.477 187.331 285.672 187.253 285.853 187.139C286.035 187.024 286.187 186.878 286.311 186.701C286.474 186.469 286.57 186.211 286.601 185.929C286.633 185.648 286.595 185.376 286.487 185.112C286.382 184.851 286.205 184.633 285.956 184.459ZM287.196 193.494C286.854 193.255 286.595 192.972 286.416 192.645C286.238 192.318 286.149 191.978 286.15 191.626C286.151 191.274 286.249 190.941 286.446 190.628L287.144 191.117C286.982 191.405 286.948 191.714 287.042 192.043C287.139 192.37 287.339 192.641 287.644 192.854C287.888 193.025 288.145 193.12 288.416 193.139C288.688 193.159 288.948 193.107 289.196 192.983C289.448 192.859 289.663 192.67 289.841 192.416C290.023 192.156 290.128 191.884 290.156 191.6C290.188 191.316 290.146 191.046 290.031 190.789C289.916 190.532 289.732 190.314 289.479 190.134C289.298 190.004 289.092 189.901 288.859 189.825C288.628 189.747 288.419 189.709 288.232 189.711L287.614 189.157L290.028 186.478L293.123 188.645L292.675 189.285L290.185 187.541L288.745 189.152L288.78 189.176C288.97 189.165 289.18 189.191 289.409 189.256C289.638 189.321 289.852 189.424 290.052 189.564C290.417 189.819 290.68 190.134 290.843 190.508C291.009 190.881 291.069 191.276 291.021 191.69C290.975 192.106 290.817 192.507 290.547 192.893C290.281 193.273 289.958 193.553 289.578 193.732C289.202 193.911 288.805 193.982 288.387 193.947C287.971 193.91 287.574 193.759 287.196 193.494Z" fill="black"/>
<path d="M309.636 171V165" stroke="black"/>
<path d="M298.299 182.115L298.666 181.591L302.14 180.815C302.547 180.725 302.89 180.639 303.17 180.557C303.451 180.474 303.685 180.375 303.872 180.26C304.063 180.145 304.222 179.996 304.35 179.814C304.496 179.604 304.573 179.388 304.579 179.164C304.588 178.941 304.535 178.728 304.421 178.524C304.306 178.32 304.142 178.142 303.926 177.991C303.697 177.831 303.464 177.739 303.227 177.714C302.993 177.689 302.771 177.729 302.56 177.832C302.35 177.937 302.166 178.103 302.007 178.33L301.321 177.849C301.565 177.5 301.86 177.25 302.206 177.099C302.552 176.948 302.915 176.896 303.295 176.943C303.678 176.991 304.042 177.136 304.39 177.379C304.739 177.624 304.996 177.914 305.163 178.25C305.329 178.586 305.401 178.933 305.379 179.291C305.357 179.648 305.239 179.98 305.025 180.286C304.871 180.506 304.681 180.692 304.455 180.846C304.232 180.999 303.934 181.136 303.561 181.256C303.191 181.375 302.707 181.499 302.109 181.627L299.769 182.121L299.736 182.167L302.506 184.106L302.058 184.746L298.299 182.115ZM305.145 187.03C304.707 186.723 304.417 186.342 304.276 185.888C304.136 185.431 304.144 184.918 304.3 184.348C304.458 183.777 304.763 183.167 305.217 182.519C305.668 181.875 306.134 181.383 306.616 181.041C307.101 180.699 307.582 180.515 308.059 180.491C308.539 180.466 308.996 180.605 309.431 180.909C309.865 181.213 310.152 181.595 310.29 182.053C310.432 182.511 310.424 183.025 310.267 183.597C310.112 184.168 309.81 184.776 309.359 185.42C308.906 186.067 308.437 186.563 307.954 186.907C307.472 187.248 306.992 187.431 306.516 187.456C306.04 187.479 305.583 187.337 305.145 187.03ZM305.593 186.39C306.028 186.694 306.512 186.721 307.046 186.47C307.579 186.22 308.118 185.707 308.661 184.931C309.022 184.415 309.274 183.937 309.418 183.497C309.563 183.058 309.6 182.672 309.527 182.338C309.457 182.005 309.278 181.739 308.991 181.538C308.56 181.236 308.075 181.213 307.535 181.468C306.997 181.721 306.457 182.234 305.915 183.008C305.554 183.524 305.301 184 305.157 184.437C305.013 184.874 304.977 185.257 305.049 185.588C305.123 185.92 305.304 186.187 305.593 186.39ZM310.265 190.614C309.827 190.308 309.537 189.927 309.395 189.472C309.256 189.016 309.264 188.503 309.42 187.933C309.577 187.362 309.883 186.752 310.336 186.104C310.787 185.46 311.254 184.967 311.736 184.626C312.221 184.284 312.702 184.1 313.179 184.076C313.659 184.05 314.116 184.19 314.55 184.494C314.985 184.798 315.271 185.18 315.41 185.638C315.552 186.096 315.544 186.61 315.386 187.182C315.232 187.753 314.93 188.361 314.479 189.005C314.025 189.652 313.557 190.148 313.073 190.492C312.591 190.833 312.112 191.016 311.635 191.041C311.16 191.063 310.703 190.921 310.265 190.614ZM310.713 189.975C311.147 190.279 311.631 190.306 312.165 190.055C312.699 189.805 313.237 189.291 313.781 188.516C314.142 188 314.394 187.522 314.538 187.082C314.683 186.643 314.719 186.257 314.647 185.923C314.576 185.59 314.397 185.323 314.11 185.122C313.68 184.821 313.195 184.798 312.655 185.053C312.117 185.306 311.576 185.819 311.035 186.593C310.673 187.109 310.421 187.585 310.277 188.022C310.133 188.459 310.097 188.842 310.169 189.173C310.243 189.505 310.424 189.772 310.713 189.975ZM315.385 194.199C314.946 193.892 314.656 193.512 314.515 193.057C314.375 192.601 314.383 192.088 314.54 191.518C314.697 190.946 315.003 190.337 315.456 189.689C315.907 189.045 316.373 188.552 316.855 188.211C317.341 187.868 317.822 187.685 318.298 187.66C318.778 187.635 319.236 187.775 319.67 188.079C320.104 188.383 320.391 188.764 320.53 189.223C320.672 189.68 320.664 190.195 320.506 190.767C320.352 191.338 320.049 191.946 319.598 192.589C319.145 193.237 318.676 193.733 318.193 194.076C317.711 194.418 317.232 194.601 316.755 194.626C316.28 194.648 315.823 194.506 315.385 194.199ZM315.833 193.559C316.267 193.864 316.751 193.89 317.285 193.64C317.819 193.389 318.357 192.876 318.9 192.101C319.262 191.585 319.514 191.107 319.657 190.667C319.803 190.228 319.839 189.842 319.766 189.508C319.696 189.175 319.517 188.908 319.23 188.707C318.8 188.406 318.314 188.383 317.775 188.638C317.236 188.891 316.696 189.404 316.154 190.178C315.793 190.694 315.541 191.17 315.397 191.607C315.253 192.043 315.217 192.427 315.288 192.758C315.362 193.09 315.544 193.357 315.833 193.559Z" fill="black"/>
<path d="M336.818 171V165" stroke="black"/>
<path d="M325.459 182.449L325.825 181.926L329.299 181.15C329.706 181.059 330.05 180.973 330.33 180.892C330.611 180.808 330.845 180.709 331.032 180.594C331.222 180.479 331.381 180.33 331.509 180.148C331.656 179.939 331.732 179.722 331.739 179.498C331.747 179.276 331.694 179.063 331.58 178.858C331.466 178.654 331.301 178.477 331.086 178.326C330.857 178.166 330.624 178.073 330.387 178.049C330.153 178.024 329.93 178.063 329.719 178.166C329.51 178.271 329.326 178.437 329.167 178.664L328.48 178.183C328.725 177.834 329.02 177.584 329.365 177.433C329.711 177.282 330.074 177.23 330.455 177.277C330.837 177.325 331.202 177.471 331.549 177.714C331.898 177.958 332.156 178.248 332.322 178.585C332.488 178.921 332.561 179.268 332.539 179.625C332.517 179.982 332.398 180.314 332.184 180.621C332.03 180.84 331.841 181.026 331.614 181.18C331.392 181.333 331.094 181.47 330.72 181.59C330.351 181.71 329.867 181.833 329.269 181.961L326.928 182.455L326.896 182.502L329.665 184.441L329.217 185.081L325.459 182.449ZM332.305 187.364C331.866 187.057 331.576 186.676 331.435 186.222C331.295 185.766 331.303 185.253 331.46 184.683C331.617 184.111 331.923 183.501 332.376 182.854C332.827 182.21 333.293 181.717 333.775 181.375C334.261 181.033 334.742 180.85 335.218 180.825C335.698 180.8 336.156 180.939 336.59 181.244C337.024 181.548 337.311 181.929 337.45 182.387C337.592 182.845 337.584 183.36 337.426 183.932C337.272 184.503 336.969 185.11 336.518 185.754C336.065 186.402 335.596 186.897 335.113 187.241C334.631 187.583 334.152 187.766 333.675 187.79C333.2 187.813 332.743 187.671 332.305 187.364ZM332.753 186.724C333.187 187.028 333.671 187.055 334.205 186.805C334.739 186.554 335.277 186.041 335.82 185.265C336.182 184.749 336.434 184.271 336.577 183.831C336.723 183.393 336.759 183.006 336.686 182.672C336.616 182.34 336.437 182.073 336.15 181.872C335.72 181.571 335.234 181.547 334.695 181.802C334.156 182.055 333.616 182.569 333.074 183.342C332.713 183.858 332.461 184.335 332.317 184.771C332.173 185.208 332.137 185.592 332.208 185.922C332.282 186.255 332.464 186.522 332.753 186.724ZM337.424 190.949C336.986 190.642 336.696 190.261 336.555 189.807C336.415 189.351 336.423 188.837 336.579 188.268C336.737 187.696 337.042 187.086 337.496 186.438C337.947 185.795 338.413 185.302 338.895 184.96C339.38 184.618 339.861 184.435 340.338 184.41C340.818 184.385 341.275 184.524 341.71 184.828C342.144 185.133 342.431 185.514 342.569 185.972C342.711 186.43 342.703 186.945 342.546 187.516C342.392 188.088 342.089 188.695 341.638 189.339C341.185 189.987 340.716 190.482 340.233 190.826C339.751 191.168 339.271 191.351 338.795 191.375C338.319 191.398 337.863 191.256 337.424 190.949ZM337.872 190.309C338.307 190.613 338.791 190.64 339.325 190.389C339.858 190.139 340.397 189.626 340.94 188.85C341.301 188.334 341.554 187.856 341.697 187.416C341.842 186.978 341.879 186.591 341.806 186.257C341.736 185.925 341.557 185.658 341.27 185.457C340.839 185.155 340.354 185.132 339.814 185.387C339.276 185.64 338.736 186.154 338.194 186.927C337.833 187.443 337.58 187.919 337.436 188.356C337.292 188.793 337.256 189.177 337.328 189.507C337.402 189.839 337.583 190.107 337.872 190.309ZM342.463 194.477C342.121 194.238 341.861 193.955 341.683 193.627C341.505 193.3 341.416 192.961 341.417 192.609C341.417 192.257 341.516 191.924 341.712 191.61L342.41 192.099C342.249 192.388 342.215 192.696 342.309 193.025C342.405 193.353 342.606 193.624 342.911 193.837C343.155 194.008 343.412 194.103 343.682 194.121C343.954 194.141 344.215 194.09 344.463 193.966C344.715 193.842 344.93 193.652 345.108 193.398C345.29 193.138 345.395 192.867 345.423 192.583C345.454 192.299 345.413 192.028 345.298 191.771C345.183 191.514 344.999 191.296 344.746 191.116C344.565 190.987 344.358 190.884 344.126 190.808C343.894 190.729 343.685 190.691 343.499 190.694L342.881 190.14L345.295 187.46L348.39 189.627L347.942 190.267L345.452 188.524L344.012 190.134L344.047 190.158C344.237 190.147 344.447 190.174 344.676 190.239C344.905 190.304 345.119 190.406 345.319 190.546C345.683 190.801 345.947 191.116 346.11 191.49C346.276 191.864 346.335 192.258 346.288 192.673C346.242 193.089 346.084 193.49 345.814 193.876C345.548 194.256 345.225 194.535 344.845 194.714C344.469 194.893 344.072 194.965 343.654 194.93C343.238 194.892 342.841 194.741 342.463 194.477Z" fill="black"/>
<path d="M364 171V165" stroke="black"/>
<path d="M352.819 182.574L353.186 182.05L356.659 181.275C357.067 181.184 357.41 181.098 357.69 181.017C357.971 180.933 358.205 180.834 358.392 180.719C358.583 180.604 358.742 180.455 358.869 180.273C359.016 180.064 359.092 179.847 359.099 179.623C359.107 179.401 359.054 179.187 358.94 178.983C358.826 178.779 358.661 178.601 358.446 178.451C358.217 178.29 357.984 178.198 357.747 178.174C357.513 178.149 357.29 178.188 357.079 178.291C356.87 178.396 356.686 178.562 356.527 178.789L355.84 178.308C356.085 177.959 356.38 177.709 356.726 177.558C357.071 177.407 357.434 177.355 357.815 177.402C358.197 177.45 358.562 177.596 358.909 177.839C359.258 178.083 359.516 178.373 359.682 178.71C359.849 179.046 359.921 179.392 359.899 179.75C359.877 180.107 359.759 180.439 359.544 180.746C359.391 180.965 359.201 181.151 358.975 181.305C358.752 181.458 358.454 181.595 358.081 181.715C357.711 181.835 357.227 181.958 356.629 182.086L354.289 182.58L354.256 182.627L357.025 184.566L356.577 185.206L352.819 182.574ZM359.665 187.489C359.227 187.182 358.937 186.801 358.795 186.347C358.655 185.891 358.664 185.377 358.82 184.808C358.977 184.236 359.283 183.626 359.736 182.979C360.187 182.335 360.654 181.842 361.136 181.5C361.621 181.158 362.102 180.975 362.579 180.95C363.059 180.925 363.516 181.064 363.95 181.369C364.385 181.673 364.671 182.054 364.81 182.512C364.952 182.97 364.944 183.485 364.786 184.056C364.632 184.628 364.33 185.235 363.879 185.879C363.425 186.527 362.957 187.022 362.473 187.366C361.991 187.708 361.512 187.891 361.035 187.915C360.56 187.938 360.103 187.796 359.665 187.489ZM360.113 186.849C360.547 187.153 361.031 187.18 361.565 186.929C362.099 186.679 362.637 186.166 363.181 185.39C363.542 184.874 363.794 184.396 363.937 183.956C364.083 183.518 364.119 183.131 364.047 182.797C363.976 182.465 363.797 182.198 363.51 181.997C363.08 181.695 362.595 181.672 362.055 181.927C361.516 182.18 360.976 182.694 360.435 183.467C360.073 183.983 359.821 184.459 359.677 184.896C359.533 185.333 359.497 185.717 359.569 186.047C359.643 186.379 359.824 186.647 360.113 186.849ZM369.164 185.141L364.993 191.098L364.271 190.593L367.913 185.392L367.878 185.368L365.748 185.315L366.261 184.582L368.443 184.636L369.164 185.141ZM368.592 193.74C368.154 193.433 367.864 193.052 367.723 192.598C367.583 192.142 367.591 191.629 367.747 191.059C367.905 190.487 368.21 189.877 368.664 189.23C369.115 188.586 369.581 188.093 370.063 187.751C370.548 187.409 371.029 187.226 371.506 187.201C371.986 187.176 372.443 187.315 372.878 187.62C373.312 187.924 373.599 188.305 373.737 188.763C373.879 189.221 373.871 189.736 373.714 190.308C373.56 190.879 373.257 191.486 372.806 192.13C372.353 192.778 371.884 193.273 371.401 193.617C370.919 193.959 370.439 194.142 369.963 194.166C369.487 194.189 369.031 194.047 368.592 193.74ZM369.04 193.1C369.475 193.404 369.959 193.431 370.493 193.181C371.026 192.93 371.565 192.417 372.108 191.641C372.469 191.125 372.722 190.647 372.865 190.207C373.01 189.769 373.047 189.382 372.974 189.048C372.904 188.716 372.725 188.449 372.438 188.248C372.007 187.947 371.522 187.923 370.982 188.178C370.444 188.431 369.904 188.945 369.362 189.718C369.001 190.234 368.748 190.711 368.604 191.147C368.46 191.584 368.424 191.968 368.496 192.298C368.57 192.631 368.751 192.898 369.04 193.1Z" fill="black"/>
<path d="M391.182 171V165" stroke="black"/>
<path d="M379.569 182.622L379.935 182.098L383.409 181.322C383.816 181.232 384.16 181.146 384.44 181.064C384.721 180.981 384.955 180.882 385.142 180.767C385.332 180.652 385.491 180.503 385.619 180.321C385.766 180.111 385.842 179.895 385.849 179.671C385.857 179.448 385.804 179.235 385.69 179.031C385.576 178.827 385.411 178.649 385.196 178.498C384.967 178.338 384.734 178.246 384.497 178.221C384.263 178.196 384.04 178.235 383.829 178.339C383.62 178.444 383.436 178.61 383.277 178.837L382.59 178.356C382.835 178.007 383.13 177.757 383.475 177.606C383.821 177.455 384.184 177.403 384.565 177.449C384.947 177.498 385.312 177.643 385.659 177.886C386.008 178.131 386.266 178.421 386.432 178.757C386.598 179.093 386.671 179.44 386.649 179.798C386.627 180.155 386.508 180.487 386.294 180.793C386.14 181.012 385.951 181.199 385.725 181.353C385.502 181.506 385.204 181.643 384.83 181.763C384.461 181.882 383.977 182.006 383.379 182.133L381.038 182.628L381.006 182.674L383.775 184.613L383.327 185.253L379.569 182.622ZM386.415 187.537C385.976 187.23 385.687 186.849 385.545 186.395C385.405 185.938 385.413 185.425 385.57 184.855C385.727 184.284 386.033 183.674 386.486 183.026C386.937 182.382 387.403 181.89 387.885 181.548C388.371 181.206 388.852 181.022 389.328 180.998C389.809 180.972 390.266 181.112 390.7 181.416C391.135 181.72 391.421 182.102 391.56 182.56C391.702 183.018 391.694 183.532 391.536 184.104C391.382 184.675 391.079 185.283 390.629 185.927C390.175 186.574 389.707 187.07 389.223 187.414C388.741 187.755 388.262 187.938 387.785 187.963C387.31 187.986 386.853 187.843 386.415 187.537ZM386.863 186.897C387.297 187.201 387.781 187.228 388.315 186.977C388.849 186.727 389.387 186.213 389.93 185.438C390.292 184.922 390.544 184.444 390.687 184.004C390.833 183.565 390.869 183.179 390.797 182.845C390.726 182.512 390.547 182.245 390.26 182.044C389.83 181.743 389.344 181.72 388.805 181.975C388.266 182.228 387.726 182.741 387.184 183.515C386.823 184.031 386.571 184.507 386.427 184.944C386.283 185.381 386.247 185.764 386.319 186.095C386.392 186.427 386.574 186.694 386.863 186.897ZM395.914 185.188L391.743 191.146L391.021 190.641L394.663 185.44L394.628 185.415L392.497 185.362L393.011 184.629L395.193 184.683L395.914 185.188ZM395.261 193.731C394.919 193.492 394.659 193.209 394.481 192.881C394.303 192.554 394.214 192.214 394.215 191.862C394.216 191.51 394.314 191.178 394.51 190.864L395.209 191.353C395.047 191.642 395.013 191.95 395.107 192.279C395.204 192.607 395.404 192.877 395.709 193.091C395.953 193.262 396.21 193.357 396.481 193.375C396.753 193.395 397.013 193.343 397.261 193.22C397.513 193.095 397.728 192.906 397.906 192.652C398.088 192.392 398.193 192.121 398.221 191.837C398.252 191.552 398.211 191.282 398.096 191.025C397.981 190.768 397.797 190.55 397.544 190.37C397.363 190.241 397.156 190.138 396.924 190.061C396.692 189.983 396.483 189.945 396.297 189.948L395.679 189.394L398.093 186.714L401.188 188.881L400.74 189.521L398.25 187.778L396.81 189.388L396.845 189.412C397.035 189.401 397.245 189.428 397.474 189.493C397.703 189.558 397.917 189.66 398.117 189.8C398.481 190.055 398.745 190.37 398.908 190.744C399.074 191.118 399.133 191.512 399.086 191.927C399.04 192.343 398.882 192.744 398.612 193.129C398.346 193.51 398.023 193.789 397.643 193.968C397.267 194.147 396.87 194.219 396.452 194.183C396.036 194.146 395.639 193.995 395.261 193.731Z" fill="black"/>
<path d="M418.364 171V165" stroke="black"/>
<path d="M407.016 182.458L407.383 181.934L410.856 181.158C411.264 181.068 411.607 180.982 411.887 180.9C412.168 180.816 412.402 180.717 412.589 180.603C412.78 180.488 412.939 180.339 413.066 180.157C413.213 179.947 413.29 179.731 413.296 179.507C413.304 179.284 413.252 179.071 413.137 178.867C413.023 178.662 412.858 178.485 412.643 178.334C412.414 178.174 412.181 178.082 411.944 178.057C411.71 178.032 411.488 178.071 411.276 178.175C411.067 178.28 410.883 178.446 410.724 178.673L410.038 178.192C410.282 177.843 410.577 177.593 410.923 177.442C411.268 177.291 411.631 177.239 412.012 177.285C412.394 177.334 412.759 177.479 413.106 177.722C413.455 177.967 413.713 178.257 413.88 178.593C414.046 178.929 414.118 179.276 414.096 179.633C414.074 179.991 413.956 180.323 413.741 180.629C413.588 180.848 413.398 181.035 413.172 181.189C412.949 181.342 412.651 181.478 412.278 181.599C411.908 181.718 411.424 181.842 410.826 181.969L408.486 182.464L408.453 182.51L411.223 184.449L410.774 185.089L407.016 182.458ZM413.862 187.372C413.424 187.066 413.134 186.685 412.993 186.23C412.853 185.774 412.861 185.261 413.017 184.691C413.175 184.119 413.48 183.51 413.934 182.862C414.384 182.218 414.851 181.725 415.333 181.384C415.818 181.041 416.299 180.858 416.776 180.834C417.256 180.808 417.713 180.948 418.148 181.252C418.582 181.556 418.868 181.937 419.007 182.396C419.149 182.854 419.141 183.368 418.984 183.94C418.829 184.511 418.527 185.119 418.076 185.762C417.622 186.41 417.154 186.906 416.671 187.249C416.189 187.591 415.709 187.774 415.232 187.799C414.757 187.821 414.3 187.679 413.862 187.372ZM414.31 186.732C414.745 187.037 415.229 187.063 415.762 186.813C416.296 186.562 416.835 186.049 417.378 185.274C417.739 184.758 417.991 184.28 418.135 183.84C418.28 183.401 418.316 183.015 418.244 182.681C418.173 182.348 417.995 182.081 417.708 181.88C417.277 181.579 416.792 181.556 416.252 181.811C415.714 182.064 415.174 182.577 414.632 183.351C414.271 183.867 414.018 184.343 413.874 184.78C413.73 185.216 413.694 185.6 413.766 185.931C413.84 186.263 414.021 186.53 414.31 186.732ZM417.096 189.515L417.462 188.992L420.936 188.216C421.343 188.125 421.687 188.039 421.966 187.958C422.247 187.874 422.482 187.775 422.669 187.66C422.859 187.545 423.018 187.397 423.146 187.214C423.293 187.005 423.369 186.788 423.376 186.564C423.384 186.342 423.331 186.129 423.217 185.924C423.103 185.72 422.938 185.543 422.723 185.392C422.494 185.232 422.261 185.139 422.024 185.115C421.79 185.09 421.567 185.129 421.356 185.233C421.147 185.337 420.962 185.503 420.804 185.73L420.117 185.25C420.362 184.9 420.657 184.65 421.002 184.499C421.348 184.348 421.711 184.296 422.091 184.343C422.474 184.391 422.839 184.537 423.186 184.78C423.535 185.024 423.793 185.315 423.959 185.651C424.125 185.987 424.197 186.334 424.176 186.691C424.154 187.049 424.035 187.38 423.821 187.687C423.667 187.906 423.478 188.092 423.251 188.246C423.028 188.399 422.73 188.536 422.357 188.656C421.987 188.776 421.503 188.899 420.906 189.027L418.565 189.521L418.533 189.568L421.302 191.507L420.854 192.147L417.096 189.515ZM423.941 194.43C423.503 194.123 423.213 193.743 423.072 193.288C422.932 192.832 422.94 192.319 423.096 191.749C423.254 191.177 423.559 190.567 424.013 189.92C424.464 189.276 424.93 188.783 425.412 188.441C425.898 188.099 426.379 187.916 426.855 187.891C427.335 187.866 427.793 188.006 428.227 188.31C428.661 188.614 428.948 188.995 429.086 189.453C429.228 189.911 429.221 190.426 429.063 190.998C428.909 191.569 428.606 192.176 428.155 192.82C427.702 193.468 427.233 193.964 426.75 194.307C426.268 194.649 425.789 194.832 425.312 194.856C424.837 194.879 424.38 194.737 423.941 194.43ZM424.39 193.79C424.824 194.094 425.308 194.121 425.842 193.871C426.376 193.62 426.914 193.107 427.457 192.331C427.818 191.815 428.071 191.338 428.214 190.897C428.359 190.459 428.396 190.072 428.323 189.738C428.253 189.406 428.074 189.139 427.787 188.938C427.356 188.637 426.871 188.613 426.332 188.868C425.793 189.121 425.253 189.635 424.711 190.409C424.35 190.924 424.097 191.401 423.953 191.837C423.809 192.274 423.773 192.658 423.845 192.989C423.919 193.321 424.101 193.588 424.39 193.79Z" fill="black"/>
<path d="M65 27.5V165" stroke="black"/>
<path d="M59 165H65" stroke="black"/>
<path d="M50.25 169.379C49.608 169.379 49.0611 169.205 48.6094 168.855C48.1577 168.503 47.8125 167.993 47.5739 167.325C47.3352 166.655 47.2159 165.845 47.2159 164.896C47.2159 163.953 47.3352 163.148 47.5739 162.48C47.8153 161.81 48.1619 161.298 48.6136 160.946C49.0682 160.591 49.6136 160.413 50.25 160.413C50.8864 160.413 51.4304 160.591 51.8821 160.946C52.3366 161.298 52.6832 161.81 52.9219 162.48C53.1634 163.148 53.2841 163.953 53.2841 164.896C53.2841 165.845 53.1648 166.655 52.9261 167.325C52.6875 167.993 52.3423 168.503 51.8906 168.855C51.4389 169.205 50.892 169.379 50.25 169.379ZM50.25 168.442C50.8864 168.442 51.3807 168.135 51.733 167.521C52.0852 166.908 52.2614 166.033 52.2614 164.896C52.2614 164.141 52.1804 163.497 52.0185 162.966C51.8594 162.435 51.6293 162.03 51.3281 161.751C51.0298 161.473 50.6705 161.334 50.25 161.334C49.6193 161.334 49.1264 161.645 48.7713 162.267C48.4162 162.886 48.2386 163.763 48.2386 164.896C48.2386 165.652 48.3182 166.294 48.4773 166.822C48.6364 167.351 48.8651 167.753 49.1634 168.028C49.4645 168.304 49.8267 168.442 50.25 168.442Z" fill="black"/>
<path d="M59 125H65" stroke="black"/>
<path d="M40.1378 129.26V128.493L43.0185 125.34C43.3565 124.97 43.6349 124.649 43.8537 124.376C44.0724 124.101 44.2344 123.842 44.3395 123.601C44.4474 123.357 44.5014 123.101 44.5014 122.834C44.5014 122.527 44.4276 122.261 44.2798 122.037C44.1349 121.813 43.9361 121.639 43.6832 121.517C43.4304 121.395 43.1463 121.334 42.831 121.334C42.4957 121.334 42.2031 121.403 41.9531 121.543C41.706 121.679 41.5142 121.871 41.3778 122.118C41.2443 122.365 41.1776 122.655 41.1776 122.987H40.1719C40.1719 122.476 40.2898 122.027 40.5256 121.641C40.7614 121.254 41.0824 120.953 41.4886 120.737C41.8977 120.521 42.3565 120.413 42.8651 120.413C43.3764 120.413 43.8295 120.521 44.2244 120.737C44.6193 120.953 44.929 121.244 45.1534 121.611C45.3778 121.977 45.4901 122.385 45.4901 122.834C45.4901 123.155 45.4318 123.469 45.3153 123.776C45.2017 124.08 45.0028 124.419 44.7188 124.794C44.4375 125.166 44.0469 125.621 43.5469 126.158L41.5866 128.254V128.322H45.6435V129.26H40.1378ZM50.25 129.379C49.608 129.379 49.0611 129.205 48.6094 128.855C48.1577 128.503 47.8125 127.993 47.5739 127.325C47.3352 126.655 47.2159 125.845 47.2159 124.896C47.2159 123.953 47.3352 123.148 47.5739 122.48C47.8153 121.81 48.1619 121.298 48.6136 120.946C49.0682 120.591 49.6136 120.413 50.25 120.413C50.8864 120.413 51.4304 120.591 51.8821 120.946C52.3366 121.298 52.6832 121.81 52.9219 122.48C53.1634 123.148 53.2841 123.953 53.2841 124.896C53.2841 125.845 53.1648 126.655 52.9261 127.325C52.6875 127.993 52.3423 128.503 51.8906 128.855C51.4389 129.205 50.892 129.379 50.25 129.379ZM50.25 128.442C50.8864 128.442 51.3807 128.135 51.733 127.521C52.0852 126.908 52.2614 126.033 52.2614 124.896C52.2614 124.141 52.1804 123.497 52.0185 122.966C51.8594 122.435 51.6293 122.03 51.3281 121.751C51.0298 121.473 50.6705 121.334 50.25 121.334C49.6193 121.334 49.1264 121.645 48.7713 122.267C48.4162 122.886 48.2386 123.763 48.2386 124.896C48.2386 125.652 48.3182 126.294 48.4773 126.822C48.6364 127.351 48.8651 127.753 49.1634 128.028C49.4645 128.304 49.8267 128.442 50.25 128.442Z" fill="black"/>
<path d="M59 85H65" stroke="black"/>
<path d="M42.7116 89.3793C42.1491 89.3793 41.6477 89.2827 41.2074 89.0895C40.7699 88.8964 40.4219 88.6279 40.1634 88.2841C39.9077 87.9376 39.7685 87.5356 39.7457 87.0782H40.8196C40.8423 87.3594 40.9389 87.6023 41.1094 87.8069C41.2798 88.0086 41.5028 88.1648 41.7784 88.2756C42.054 88.3864 42.3594 88.4418 42.6946 88.4418C43.0696 88.4418 43.402 88.3765 43.6918 88.2458C43.9815 88.1151 44.2088 87.9333 44.3736 87.7003C44.5384 87.4674 44.6207 87.1975 44.6207 86.8907C44.6207 86.5697 44.5412 86.287 44.3821 86.0427C44.223 85.7955 43.9901 85.6023 43.6832 85.4631C43.3764 85.3239 43.0014 85.2543 42.5582 85.2543H41.8594V84.3168H42.5582C42.9048 84.3168 43.2088 84.2543 43.4702 84.1293C43.7344 84.0043 43.9403 83.8282 44.0881 83.6009C44.2386 83.3736 44.3139 83.1066 44.3139 82.7998C44.3139 82.5043 44.2486 82.2472 44.1179 82.0285C43.9872 81.8097 43.8026 81.6393 43.5639 81.5171C43.3281 81.3949 43.0497 81.3339 42.7287 81.3339C42.4276 81.3339 42.1435 81.3893 41.8764 81.5001C41.6122 81.608 41.3963 81.7657 41.2287 81.9731C41.0611 82.1776 40.9702 82.4248 40.956 82.7145H39.9332C39.9503 82.2572 40.0881 81.8566 40.3466 81.5128C40.6051 81.1662 40.9432 80.8964 41.3608 80.7032C41.7813 80.51 42.2429 80.4134 42.7457 80.4134C43.2855 80.4134 43.7486 80.5228 44.1349 80.7415C44.5213 80.9574 44.8182 81.2429 45.0256 81.5981C45.233 81.9532 45.3366 82.3367 45.3366 82.7486C45.3366 83.2401 45.2074 83.6591 44.9489 84.0057C44.6932 84.3523 44.3452 84.5924 43.9048 84.7259V84.7941C44.456 84.885 44.8864 85.1194 45.196 85.4972C45.5057 85.8722 45.6605 86.3367 45.6605 86.8907C45.6605 87.3651 45.5313 87.7912 45.2727 88.1691C45.017 88.5441 44.6676 88.8395 44.2244 89.0554C43.7813 89.2714 43.277 89.3793 42.7116 89.3793ZM50.25 89.3793C49.608 89.3793 49.0611 89.2046 48.6094 88.8552C48.1577 88.5029 47.8125 87.9929 47.5739 87.3253C47.3352 86.6549 47.2159 85.8452 47.2159 84.8964C47.2159 83.9532 47.3352 83.1478 47.5739 82.4802C47.8153 81.8097 48.1619 81.2983 48.6136 80.9461C49.0682 80.591 49.6136 80.4134 50.25 80.4134C50.8864 80.4134 51.4304 80.591 51.8821 80.9461C52.3366 81.2983 52.6832 81.8097 52.9219 82.4802C53.1634 83.1478 53.2841 83.9532 53.2841 84.8964C53.2841 85.8452 53.1648 86.6549 52.9261 87.3253C52.6875 87.9929 52.3423 88.5029 51.8906 88.8552C51.4389 89.2046 50.892 89.3793 50.25 89.3793ZM50.25 88.4418C50.8864 88.4418 51.3807 88.135 51.733 87.5214C52.0852 86.9077 52.2614 86.0327 52.2614 84.8964C52.2614 84.1407 52.1804 83.4972 52.0185 82.966C51.8594 82.4347 51.6293 82.0299 51.3281 81.7515C51.0298 81.4731 50.6705 81.3339 50.25 81.3339C49.6193 81.3339 49.1264 81.6449 48.7713 82.2671C48.4162 82.8864 48.2386 83.7628 48.2386 84.8964C48.2386 85.652 48.3182 86.2941 48.4773 86.8225C48.6364 87.3509 48.8651 87.7529 49.1634 88.0285C49.4645 88.304 49.8267 88.4418 50.25 88.4418Z" fill="black"/>
<path d="M59 64.74H65" stroke="black"/>
<path d="M42.9109 69.1193C42.3484 69.1193 41.8469 69.0227 41.4066 68.8295C40.9691 68.6364 40.6211 68.3679 40.3626 68.0241C40.1069 67.6776 39.9677 67.2756 39.945 66.8182H41.0188C41.0415 67.0994 41.1381 67.3423 41.3086 67.5469C41.479 67.7486 41.7021 67.9048 41.9776 68.0156C42.2532 68.1264 42.5586 68.1818 42.8938 68.1818C43.2688 68.1818 43.6012 68.1165 43.891 67.9858C44.1808 67.8551 44.408 67.6733 44.5728 67.4403C44.7376 67.2074 44.82 66.9375 44.82 66.6307C44.82 66.3097 44.7404 66.027 44.5813 65.7827C44.4222 65.5355 44.1893 65.3423 43.8825 65.2031C43.5756 65.0639 43.2006 64.9943 42.7575 64.9943H42.0586V64.0568H42.7575C43.104 64.0568 43.408 63.9943 43.6694 63.8693C43.9336 63.7443 44.1396 63.5682 44.2873 63.3409C44.4379 63.1136 44.5131 62.8466 44.5131 62.5398C44.5131 62.2443 44.4478 61.9872 44.3171 61.7685C44.1864 61.5497 44.0018 61.3793 43.7631 61.2571C43.5273 61.1349 43.2489 61.0739 42.9279 61.0739C42.6268 61.0739 42.3427 61.1293 42.0756 61.2401C41.8114 61.348 41.5955 61.5057 41.4279 61.7131C41.2603 61.9176 41.1694 62.1648 41.1552 62.4545H40.1325C40.1495 61.9972 40.2873 61.5966 40.5458 61.2528C40.8043 60.9062 41.1424 60.6364 41.56 60.4432C41.9805 60.25 42.4421 60.1534 42.945 60.1534C43.4847 60.1534 43.9478 60.2628 44.3342 60.4815C44.7205 60.6974 45.0174 60.983 45.2248 61.3381C45.4322 61.6932 45.5359 62.0767 45.5359 62.4886C45.5359 62.9801 45.4066 63.3991 45.1481 63.7457C44.8924 64.0923 44.5444 64.3324 44.104 64.4659V64.5341C44.6552 64.625 45.0856 64.8594 45.3952 65.2372C45.7049 65.6122 45.8597 66.0767 45.8597 66.6307C45.8597 67.1051 45.7305 67.5312 45.4719 67.9091C45.2163 68.2841 44.8668 68.5795 44.4237 68.7955C43.9805 69.0114 43.4762 69.1193 42.9109 69.1193ZM50.3299 69.1193C49.8299 69.1193 49.3796 69.0199 48.979 68.821C48.5785 68.6222 48.2575 68.3494 48.016 68.0028C47.7745 67.6562 47.6424 67.2614 47.6197 66.8182H48.6424C48.6822 67.2131 48.8612 67.5398 49.1793 67.7983C49.5004 68.054 49.8839 68.1818 50.3299 68.1818C50.6879 68.1818 51.006 68.098 51.2844 67.9304C51.5657 67.7628 51.7859 67.5327 51.945 67.2401C52.1069 66.9446 52.1879 66.6108 52.1879 66.2386C52.1879 65.858 52.104 65.5185 51.9364 65.2202C51.7717 64.919 51.5444 64.6818 51.2546 64.5085C50.9648 64.3352 50.6339 64.2472 50.2617 64.2443C49.9947 64.2415 49.7205 64.2827 49.4393 64.3679C49.158 64.4503 48.9265 64.5568 48.7447 64.6875L47.756 64.5682L48.2844 60.2727H52.8185V61.2102H49.1708L48.864 63.7841H48.9151C49.0941 63.642 49.3185 63.5241 49.5884 63.4304C49.8583 63.3366 50.1396 63.2898 50.4322 63.2898C50.9663 63.2898 51.4421 63.4176 51.8597 63.6733C52.2802 63.9261 52.6097 64.2727 52.8484 64.7131C53.0898 65.1534 53.2106 65.6562 53.2106 66.2216C53.2106 66.7784 53.0856 67.2756 52.8356 67.7131C52.5884 68.1477 52.2475 68.4915 51.8129 68.7443C51.3782 68.9943 50.8839 69.1193 50.3299 69.1193Z" fill="black"/>
<path d="M59 104.74H65" stroke="black"/>
<path d="M40.337 109V108.233L43.2177 105.08C43.5558 104.71 43.8342 104.389 44.0529 104.116C44.2717 103.841 44.4336 103.582 44.5387 103.341C44.6467 103.097 44.7006 102.841 44.7006 102.574C44.7006 102.267 44.6268 102.001 44.479 101.777C44.3342 101.553 44.1353 101.379 43.8825 101.257C43.6296 101.135 43.3455 101.074 43.0302 101.074C42.695 101.074 42.4023 101.143 42.1523 101.283C41.9052 101.419 41.7134 101.611 41.5771 101.858C41.4435 102.105 41.3768 102.395 41.3768 102.727H40.3711C40.3711 102.216 40.489 101.767 40.7248 101.381C40.9606 100.994 41.2816 100.693 41.6879 100.477C42.0969 100.261 42.5558 100.153 43.0643 100.153C43.5756 100.153 44.0288 100.261 44.4237 100.477C44.8185 100.693 45.1282 100.984 45.3526 101.351C45.5771 101.717 45.6893 102.125 45.6893 102.574C45.6893 102.895 45.631 103.209 45.5146 103.516C45.4009 103.82 45.2021 104.159 44.918 104.534C44.6367 104.906 44.2461 105.361 43.7461 105.898L41.7859 107.994V108.062H45.8427V109H40.337ZM50.3299 109.119C49.8299 109.119 49.3796 109.02 48.979 108.821C48.5785 108.622 48.2575 108.349 48.016 108.003C47.7745 107.656 47.6424 107.261 47.6197 106.818H48.6424C48.6822 107.213 48.8612 107.54 49.1793 107.798C49.5004 108.054 49.8839 108.182 50.3299 108.182C50.6879 108.182 51.006 108.098 51.2844 107.93C51.5657 107.763 51.7859 107.533 51.945 107.24C52.1069 106.945 52.1879 106.611 52.1879 106.239C52.1879 105.858 52.104 105.518 51.9364 105.22C51.7717 104.919 51.5444 104.682 51.2546 104.509C50.9648 104.335 50.6339 104.247 50.2617 104.244C49.9947 104.241 49.7205 104.283 49.4393 104.368C49.158 104.45 48.9265 104.557 48.7447 104.688L47.756 104.568L48.2844 100.273H52.8185V101.21H49.1708L48.864 103.784H48.9151C49.0941 103.642 49.3185 103.524 49.5884 103.43C49.8583 103.337 50.1396 103.29 50.4322 103.29C50.9663 103.29 51.4421 103.418 51.8597 103.673C52.2802 103.926 52.6097 104.273 52.8484 104.713C53.0898 105.153 53.2106 105.656 53.2106 106.222C53.2106 106.778 53.0856 107.276 52.8356 107.713C52.5884 108.148 52.2475 108.491 51.8129 108.744C51.3782 108.994 50.8839 109.119 50.3299 109.119Z" fill="black"/>
<path d="M59 45H65" stroke="black"/>
<path d="M39.4996 47.4702V46.6009L43.3349 40.5327H43.9656V41.8793H43.5394L40.6417 46.4645V46.5327H45.8065V47.4702H39.4996ZM43.6076 49.26V47.206V46.8012V40.5327H44.6133V49.26H43.6076ZM50.25 49.3793C49.608 49.3793 49.0611 49.2046 48.6094 48.8552C48.1577 48.5029 47.8125 47.993 47.5739 47.3253C47.3352 46.6549 47.2159 45.8452 47.2159 44.8964C47.2159 43.9532 47.3352 43.1478 47.5739 42.4802C47.8153 41.8097 48.1619 41.2984 48.6136 40.9461C49.0682 40.591 49.6136 40.4134 50.25 40.4134C50.8864 40.4134 51.4304 40.591 51.8821 40.9461C52.3366 41.2984 52.6832 41.8097 52.9219 42.4802C53.1634 43.1478 53.2841 43.9532 53.2841 44.8964C53.2841 45.8452 53.1648 46.6549 52.9261 47.3253C52.6875 47.993 52.3423 48.5029 51.8906 48.8552C51.4389 49.2046 50.892 49.3793 50.25 49.3793ZM50.25 48.4418C50.8864 48.4418 51.3807 48.135 51.733 47.5214C52.0852 46.9077 52.2614 46.0327 52.2614 44.8964C52.2614 44.1407 52.1804 43.4972 52.0185 42.966C51.8594 42.4347 51.6293 42.0299 51.3281 41.7515C51.0298 41.4731 50.6705 41.3339 50.25 41.3339C49.6193 41.3339 49.1264 41.6449 48.7713 42.2671C48.4162 42.8864 48.2386 43.7628 48.2386 44.8964C48.2386 45.652 48.3182 46.2941 48.4773 46.8225C48.6364 47.3509 48.8651 47.7529 49.1634 48.0285C49.4645 48.304 49.8267 48.4418 50.25 48.4418Z" fill="black"/>
<path d="M65 113H93L119 116.5L146 110.5L174.5 107.5L200.522 106L227.727 100L255 95L281.5 91.5L308.5 88L334.5 83L366 78L395.5 77L422 74" stroke="#5F9B3A" stroke-width="2"/>
<line x1="91.5" y1="108" x2="91.5" y2="90" stroke="#3A6420"/>
<circle cx="91.5" cy="107.5" r="1.5" fill="#3A6420"/>
<path d="M84.5927 87V86.1136L86.6637 84.196C86.8398 84.0256 86.9876 83.8722 87.1069 83.7358C87.2281 83.5994 87.32 83.4659 87.3825 83.3352C87.445 83.2027 87.4762 83.0597 87.4762 82.9062C87.4762 82.7358 87.4374 82.589 87.3597 82.4659C87.2821 82.3409 87.176 82.2453 87.0415 82.179C86.9071 82.1108 86.7546 82.0767 86.5842 82.0767C86.4061 82.0767 86.2508 82.1127 86.1183 82.1847C85.9857 82.2566 85.8834 82.3598 85.8114 82.4943C85.7395 82.6288 85.7035 82.7888 85.7035 82.9744H84.5359C84.5359 82.5937 84.622 82.2633 84.7944 81.983C84.9667 81.7027 85.2082 81.4858 85.5188 81.3324C85.8294 81.179 86.1874 81.1023 86.5927 81.1023C87.0094 81.1023 87.372 81.1761 87.6808 81.3239C87.9914 81.4697 88.2328 81.6723 88.4052 81.9318C88.5775 82.1913 88.6637 82.4886 88.6637 82.8239C88.6637 83.0436 88.6201 83.2604 88.533 83.4744C88.4478 83.6884 88.2953 83.9261 88.0756 84.1875C87.8559 84.447 87.5463 84.7585 87.1467 85.1222L86.2972 85.9545V85.9943H88.7404V87H84.5927ZM91.7823 87.0795C91.3581 87.0795 90.9802 87.0066 90.6488 86.8608C90.3192 86.7131 90.0588 86.5104 89.8675 86.2528C89.6781 85.9934 89.5806 85.6941 89.5749 85.3551H90.8136C90.8211 85.4972 90.8675 85.6222 90.9528 85.7301C91.0399 85.8362 91.1554 85.9186 91.2994 85.9773C91.4433 86.036 91.6052 86.0653 91.7852 86.0653C91.9727 86.0653 92.1384 86.0322 92.2823 85.9659C92.4263 85.8996 92.5389 85.8078 92.6204 85.6903C92.7018 85.5729 92.7425 85.4375 92.7425 85.2841C92.7425 85.1288 92.699 84.9915 92.6119 84.8722C92.5266 84.7509 92.4035 84.6562 92.2425 84.5881C92.0835 84.5199 91.8941 84.4858 91.6744 84.4858H91.1317V83.5824H91.6744C91.86 83.5824 92.0238 83.5502 92.1658 83.4858C92.3098 83.4214 92.4215 83.3324 92.5011 83.2188C92.5806 83.1032 92.6204 82.9688 92.6204 82.8153C92.6204 82.6695 92.5853 82.5417 92.5153 82.4318C92.4471 82.3201 92.3505 82.233 92.2255 82.1705C92.1024 82.108 91.9585 82.0767 91.7937 82.0767C91.627 82.0767 91.4746 82.107 91.3363 82.1676C91.198 82.2263 91.0872 82.3106 91.0039 82.4205C90.9206 82.5303 90.8761 82.6591 90.8704 82.8068H89.6914C89.6971 82.4716 89.7927 82.1761 89.9783 81.9205C90.1639 81.6648 90.4139 81.465 90.7283 81.321C91.0446 81.1752 91.4016 81.1023 91.7994 81.1023C92.2009 81.1023 92.5522 81.1752 92.8533 81.321C93.1545 81.4669 93.3884 81.6638 93.555 81.9119C93.7236 82.1581 93.8069 82.4347 93.805 82.7415C93.8069 83.0672 93.7056 83.339 93.5011 83.5568C93.2984 83.7746 93.0342 83.9129 92.7085 83.9716V84.017C93.1365 84.072 93.4622 84.2206 93.6857 84.4631C93.9111 84.7036 94.0228 85.0047 94.021 85.3665C94.0228 85.6979 93.9272 85.9924 93.734 86.25C93.5427 86.5076 93.2785 86.7102 92.9414 86.858C92.6043 87.0057 92.2179 87.0795 91.7823 87.0795ZM96.0678 86.2045L96.0366 86.517C96.012 86.767 95.9646 87.0161 95.8945 87.2642C95.8263 87.5142 95.7544 87.7405 95.6786 87.9432C95.6048 88.1458 95.5451 88.3049 95.4996 88.4205H94.7156C94.744 88.3087 94.7828 88.1525 94.832 87.9517C94.8813 87.7528 94.9277 87.5294 94.9712 87.2812C95.0148 87.0331 95.0423 86.7803 95.0536 86.5227L95.0678 86.2045H96.0678ZM98.9677 81.1818V87H97.7376V82.3494H97.7035L96.3711 83.1847V82.0938L97.8114 81.1818H98.9677Z" fill="#3A6420"/>
<line x1="418.5" y1="69" x2="418.5" y2="51" stroke="#3A6420"/>
<circle cx="418.5" cy="68.5" r="1.5" fill="#3A6420"/>
<path d="M410.694 48V47.1136L412.765 45.196C412.941 45.0256 413.089 44.8722 413.208 44.7358C413.33 44.5994 413.422 44.4659 413.484 44.3352C413.547 44.2027 413.578 44.0597 413.578 43.9062C413.578 43.7358 413.539 43.589 413.461 43.4659C413.384 43.3409 413.278 43.2453 413.143 43.179C413.009 43.1108 412.856 43.0767 412.686 43.0767C412.508 43.0767 412.352 43.1127 412.22 43.1847C412.087 43.2566 411.985 43.3598 411.913 43.4943C411.841 43.6288 411.805 43.7888 411.805 43.9744H410.637C410.637 43.5937 410.724 43.2633 410.896 42.983C411.068 42.7027 411.31 42.4858 411.62 42.3324C411.931 42.179 412.289 42.1023 412.694 42.1023C413.111 42.1023 413.474 42.1761 413.782 42.3239C414.093 42.4697 414.334 42.6723 414.507 42.9318C414.679 43.1913 414.765 43.4886 414.765 43.8239C414.765 44.0436 414.722 44.2604 414.635 44.4744C414.549 44.6884 414.397 44.9261 414.177 45.1875C413.958 45.447 413.648 45.7585 413.248 46.1222L412.399 46.9545V46.9943H414.842V48H410.694ZM417.838 42.1023C418.138 42.1023 418.426 42.1525 418.702 42.2528C418.98 42.3532 419.229 42.5133 419.446 42.733C419.666 42.9527 419.839 43.2443 419.966 43.608C420.095 43.9697 420.16 44.4138 420.162 44.9403C420.162 45.4347 420.106 45.8759 419.995 46.2642C419.885 46.6506 419.727 46.9792 419.52 47.25C419.314 47.5208 419.065 47.7273 418.773 47.8693C418.481 48.0095 418.156 48.0795 417.796 48.0795C417.408 48.0795 417.065 48.0047 416.767 47.8551C416.47 47.7036 416.23 47.4981 416.049 47.2386C415.869 46.9773 415.76 46.6837 415.722 46.358H416.935C416.982 46.5701 417.082 46.7348 417.233 46.8523C417.385 46.9678 417.572 47.0256 417.796 47.0256C418.175 47.0256 418.462 46.8608 418.659 46.5312C418.856 46.1998 418.956 45.7462 418.958 45.1705H418.918C418.831 45.3409 418.713 45.4877 418.566 45.6108C418.418 45.732 418.248 45.8258 418.057 45.892C417.868 45.9583 417.666 45.9915 417.452 45.9915C417.109 45.9915 416.803 45.911 416.534 45.75C416.266 45.589 416.053 45.3674 415.898 45.0852C415.743 44.803 415.665 44.4811 415.665 44.1193C415.663 43.7292 415.753 43.3816 415.935 43.0767C416.117 42.7718 416.371 42.5331 416.696 42.3608C417.024 42.1866 417.405 42.1004 417.838 42.1023ZM417.847 43.0682C417.656 43.0682 417.485 43.1136 417.336 43.2045C417.188 43.2955 417.07 43.4176 416.983 43.571C416.898 43.7244 416.856 43.8958 416.858 44.0852C416.858 44.2765 416.9 44.4489 416.983 44.6023C417.069 44.7538 417.184 44.875 417.33 44.9659C417.478 45.0549 417.646 45.0994 417.836 45.0994C417.978 45.0994 418.109 45.0729 418.23 45.0199C418.352 44.9669 418.457 44.8939 418.546 44.8011C418.637 44.7064 418.708 44.5975 418.759 44.4744C418.81 44.3513 418.836 44.2206 418.836 44.0824C418.834 43.8987 418.79 43.7301 418.705 43.5767C418.62 43.4233 418.502 43.3002 418.353 43.2074C418.203 43.1146 418.034 43.0682 417.847 43.0682ZM422.107 47.2045L422.076 47.517C422.051 47.767 422.004 48.0161 421.934 48.2642C421.865 48.5142 421.793 48.7405 421.718 48.9432C421.644 49.1458 421.584 49.3049 421.539 49.4205H420.755C420.783 49.3087 420.822 49.1525 420.871 48.9517C420.92 48.7528 420.967 48.5294 421.01 48.2812C421.054 48.0331 421.081 47.7803 421.093 47.5227L421.107 47.2045H422.107ZM425.201 48.0795C424.901 48.0777 424.613 48.0275 424.334 47.929C424.058 47.8305 423.81 47.6705 423.59 47.4489C423.37 47.2273 423.196 46.9337 423.067 46.5682C422.94 46.2027 422.877 45.7538 422.877 45.2216C422.879 44.733 422.935 44.2964 423.044 43.9119C423.156 43.5256 423.315 43.1979 423.522 42.929C423.73 42.66 423.979 42.4555 424.269 42.3153C424.559 42.1733 424.883 42.1023 425.243 42.1023C425.632 42.1023 425.974 42.178 426.272 42.3295C426.569 42.4792 426.808 42.6828 426.988 42.9403C427.169 43.1979 427.279 43.4867 427.317 43.8068H426.104C426.057 43.6042 425.957 43.4451 425.806 43.3295C425.654 43.214 425.467 43.1562 425.243 43.1562C424.864 43.1562 424.577 43.321 424.38 43.6506C424.185 43.9801 424.085 44.428 424.081 44.9943H424.121C424.208 44.822 424.326 44.6752 424.473 44.554C424.623 44.4309 424.792 44.3371 424.982 44.2727C425.173 44.2064 425.375 44.1733 425.587 44.1733C425.932 44.1733 426.239 44.2547 426.507 44.4176C426.776 44.5786 426.989 44.8002 427.144 45.0824C427.299 45.3646 427.377 45.6875 427.377 46.0511C427.377 46.4451 427.285 46.7955 427.101 47.1023C426.919 47.4091 426.665 47.6496 426.337 47.8239C426.011 47.9962 425.632 48.0814 425.201 48.0795ZM425.195 47.1136C425.384 47.1136 425.554 47.0682 425.703 46.9773C425.853 46.8864 425.971 46.7633 426.056 46.608C426.141 46.4527 426.184 46.2784 426.184 46.0852C426.184 45.892 426.141 45.7187 426.056 45.5653C425.972 45.4119 425.857 45.2898 425.709 45.1989C425.561 45.108 425.393 45.0625 425.203 45.0625C425.061 45.0625 424.93 45.089 424.809 45.142C424.689 45.1951 424.584 45.2689 424.493 45.3636C424.404 45.4583 424.334 45.5682 424.283 45.6932C424.232 45.8163 424.206 45.9479 424.206 46.0881C424.206 46.2756 424.249 46.447 424.334 46.6023C424.421 46.7576 424.539 46.8816 424.686 46.9744C424.836 47.0672 425.006 47.1136 425.195 47.1136Z" fill="#3A6420"/>
<path d="M42.179 21H41.2557L43.9261 13.7273H44.8352L47.5057 21H46.5824L44.4091 14.8778H44.3523L42.179 21ZM42.5199 18.1591H46.2415V18.9403H42.5199V18.1591ZM49.3629 13.7273V21H48.5249V13.7273H49.3629ZM52.9576 21.1136C52.503 21.1136 52.1017 20.9988 51.7537 20.7692C51.4057 20.5372 51.1335 20.2105 50.937 19.7891C50.7405 19.3653 50.6422 18.8646 50.6422 18.2869C50.6422 17.714 50.7405 17.2169 50.937 16.7955C51.1335 16.3741 51.4069 16.0485 51.7573 15.8189C52.1077 15.5893 52.5125 15.4744 52.9718 15.4744C53.3269 15.4744 53.6074 15.5336 53.8134 15.652C54.0217 15.768 54.1803 15.9006 54.2892 16.0497C54.4005 16.1965 54.4869 16.3172 54.5485 16.4119H54.6195V13.7273H55.4576V21H54.6479V20.1619H54.5485C54.4869 20.2614 54.3993 20.3868 54.2857 20.5384C54.1721 20.6875 54.0099 20.8213 53.7992 20.9396C53.5885 21.0556 53.3079 21.1136 52.9576 21.1136ZM53.0712 20.3608C53.4074 20.3608 53.6915 20.2732 53.9235 20.098C54.1555 19.9205 54.3319 19.6754 54.4526 19.3629C54.5733 19.0481 54.6337 18.6847 54.6337 18.2727C54.6337 17.8655 54.5745 17.5092 54.4561 17.2038C54.3378 16.8961 54.1626 16.657 53.9306 16.4865C53.6986 16.3137 53.4121 16.2273 53.0712 16.2273C52.7161 16.2273 52.4202 16.3184 52.1834 16.5007C51.949 16.6806 51.7727 16.9257 51.6543 17.2358C51.5383 17.5436 51.4803 17.8892 51.4803 18.2727C51.4803 18.661 51.5395 19.0137 51.6578 19.331C51.7786 19.6458 51.9561 19.8968 52.1905 20.0838C52.4273 20.2685 52.7208 20.3608 53.0712 20.3608ZM59.3958 21.1136C58.8702 21.1136 58.4168 20.9976 58.0357 20.7656C57.6569 20.5312 57.3645 20.2045 57.1586 19.7855C56.955 19.3641 56.8532 18.8741 56.8532 18.3153C56.8532 17.7566 56.955 17.2642 57.1586 16.8381C57.3645 16.4096 57.651 16.0758 58.0179 15.8366C58.3873 15.5952 58.8181 15.4744 59.3105 15.4744C59.5946 15.4744 59.8752 15.5218 60.1522 15.6165C60.4292 15.7112 60.6813 15.8651 60.9086 16.0781C61.1358 16.2888 61.3169 16.5682 61.4519 16.9162C61.5868 17.2642 61.6543 17.6927 61.6543 18.2017V18.5568H57.4498V17.8324H60.802C60.802 17.5246 60.7405 17.25 60.6174 17.0085C60.4966 16.767 60.3238 16.5765 60.0989 16.4368C59.8764 16.2971 59.6136 16.2273 59.3105 16.2273C58.9767 16.2273 58.6879 16.3101 58.4441 16.4759C58.2026 16.6392 58.0167 16.8523 57.8865 17.1151C57.7563 17.3778 57.6912 17.6596 57.6912 17.9602V18.4432C57.6912 18.8551 57.7623 19.2043 57.9043 19.4908C58.0487 19.7749 58.2488 19.9915 58.5044 20.1406C58.7601 20.2874 59.0572 20.3608 59.3958 20.3608C59.6159 20.3608 59.8148 20.33 59.9924 20.2685C60.1723 20.2045 60.3274 20.1098 60.4576 19.9844C60.5878 19.8565 60.6884 19.6979 60.7594 19.5085L61.5691 19.7358C61.4838 20.0104 61.3406 20.2519 61.1394 20.4602C60.9382 20.6662 60.6896 20.8272 60.3936 20.9432C60.0977 21.0568 59.7651 21.1136 59.3958 21.1136ZM62.9292 21V15.5455H63.7388V16.3693H63.7956C63.8951 16.0994 64.075 15.8804 64.3354 15.7124C64.5958 15.5443 64.8894 15.4602 65.2161 15.4602C65.2776 15.4602 65.3546 15.4614 65.4469 15.4638C65.5392 15.4661 65.6091 15.4697 65.6564 15.4744V16.3267C65.628 16.3196 65.5629 16.3089 65.4611 16.2947C65.3617 16.2782 65.2563 16.2699 65.1451 16.2699C64.8799 16.2699 64.6432 16.3255 64.4348 16.4368C64.2289 16.5457 64.0655 16.6972 63.9448 16.8913C63.8264 17.0831 63.7672 17.3021 63.7672 17.5483V21H62.9292Z" fill="black"/>
<path d="M449.179 166H448.256L450.926 158.727H451.835L454.506 166H453.582L451.409 159.878H451.352L449.179 166ZM449.52 163.159H453.241V163.94H449.52V163.159ZM451.381 158.23C451.097 158.23 450.854 158.129 450.653 157.928C450.451 157.727 450.351 157.484 450.351 157.2C450.351 157.011 450.397 156.838 450.489 156.682C450.582 156.526 450.706 156.401 450.862 156.309C451.018 156.217 451.191 156.17 451.381 156.17C451.57 156.17 451.743 156.217 451.899 156.309C452.055 156.401 452.18 156.526 452.272 156.682C452.364 156.838 452.411 157.011 452.411 157.2C452.411 157.39 452.364 157.562 452.272 157.719C452.18 157.875 452.055 157.999 451.899 158.092C451.743 158.184 451.57 158.23 451.381 158.23ZM451.381 157.719C451.527 157.719 451.649 157.669 451.746 157.57C451.844 157.468 451.892 157.345 451.892 157.2C451.892 157.056 451.844 156.934 451.746 156.835C451.649 156.733 451.527 156.682 451.381 156.682C451.234 156.682 451.112 156.733 451.015 156.835C450.918 156.934 450.869 157.056 450.869 157.2C450.869 157.345 450.918 157.468 451.015 157.57C451.112 157.669 451.234 157.719 451.381 157.719ZM455.525 166V160.545H456.335V161.369H456.391C456.491 161.099 456.671 160.88 456.931 160.712C457.192 160.544 457.485 160.46 457.812 160.46C457.873 160.46 457.95 160.461 458.043 160.464C458.135 160.466 458.205 160.47 458.252 160.474V161.327C458.224 161.32 458.159 161.309 458.057 161.295C457.957 161.278 457.852 161.27 457.741 161.27C457.476 161.27 457.239 161.326 457.031 161.437C456.825 161.546 456.661 161.697 456.54 161.891C456.422 162.083 456.363 162.302 456.363 162.548V166H455.525Z" fill="black"/>
</svg>
